<svg xmlns="http://www.w3.org/2000/svg" viewBox="0 0 40.94 32.22"><defs><style>.cls-1{fill:#d0d7e5;}.cls-1,.cls-2,.cls-3{stroke:#5a5a5a;}.cls-1,.cls-2{stroke-miterlimit:10;}.cls-2,.cls-3{fill:none;}.cls-3{stroke-linecap:round;stroke-linejoin:round;stroke-width:1.5px;}</style></defs><title>email</title><g id="Layer_2" data-name="Layer 2"><g id="Layer_1-2" data-name="Layer 1"><path class="cls-1" d="M39,1.75V1.5L22.55,18.1a1.16,1.16,0,0,0-.19.16,4.62,4.62,0,0,1-1.1.8,4.46,4.46,0,0,0,1.57-1A.65.65,0,0,1,23,17.9l1.38-1.38L39.12,1.8V1.75Z"/><path class="cls-2" d="M39,1.75V1.5L22.55,18.1a1.16,1.16,0,0,0-.19.16,4.62,4.62,0,0,1-1.1.8,4.46,4.46,0,0,0,1.57-1A.65.65,0,0,1,23,17.9l1.38-1.38L39.12,1.8V1.75Z"/><path class="cls-3" d="M.75,27.92V4.31a4,4,0,0,1,.61-2.37A3.32,3.32,0,0,1,4.3.76H36.64a3.49,3.49,0,0,1,1.24.14,3.27,3.27,0,0,1,.88.33A.65.65,0,0,1,39,1.5"/><path class="cls-3" d="M39.48,1.86a.48.48,0,0,1,.14.19,4.31,4.31,0,0,1,.58,2.26V27.92"/><path class="cls-3" d="M40.19,27.92q0,3.55-3.55,3.55H4.3c-2.12,0-3.28-1-3.52-2.86a5.56,5.56,0,0,1,0-.69"/><line class="cls-3" x1="40.19" y1="27.92" x2="24.39" y2="16.53"/><path class="cls-3" d="M16.55,16.47,18.09,18a3.15,3.15,0,0,0,3.17,1,4.43,4.43,0,0,0,1.57-1A.64.64,0,0,1,23,17.9l1.38-1.38"/><line class="cls-3" x1="16.55" y1="16.47" x2="0.75" y2="27.92"/><line class="cls-3" x1="39.12" y1="1.8" x2="24.39" y2="16.53"/><line class="cls-3" x1="1.93" y1="1.86" x2="16.55" y2="16.47"/></g></g></svg>