<svg xmlns="http://www.w3.org/2000/svg" viewBox="0 0 512 341.34"><defs><style>.cls-1{fill:#f0f0f0;}.cls-2{fill:#d80027;}</style></defs><title>Asset 2</title><g id="Layer_2" data-name="Layer 2"><g id="Capa_1" data-name="Capa 1"><rect class="cls-1" width="512" height="341.34"/><polygon class="cls-2" points="288 0 224 0 224 138.67 0 138.67 0 202.67 224 202.67 224 341.33 288 341.33 288 202.67 512 202.67 512 138.67 288 138.67 288 0"/><polygon class="cls-2" points="123.13 58.2 123.13 35.94 100.87 35.94 100.87 58.2 78.61 58.2 78.61 80.47 100.87 80.47 100.87 102.73 123.13 102.73 123.13 80.47 145.39 80.47 145.39 58.2 123.13 58.2"/><polygon class="cls-2" points="411.13 58.2 411.13 35.94 388.87 35.94 388.87 58.2 366.61 58.2 366.61 80.47 388.87 80.47 388.87 102.73 411.13 102.73 411.13 80.47 433.39 80.47 433.39 58.2 411.13 58.2"/><polygon class="cls-2" points="123.13 260.87 123.13 238.61 100.87 238.61 100.87 260.87 78.61 260.87 78.61 283.13 100.87 283.13 100.87 305.39 123.13 305.39 123.13 283.13 145.39 283.13 145.39 260.87 123.13 260.87"/><polygon class="cls-2" points="411.13 260.87 411.13 238.61 388.87 238.61 388.87 260.87 366.61 260.87 366.61 283.13 388.87 283.13 388.87 305.39 411.13 305.39 411.13 283.13 433.39 283.13 433.39 260.87 411.13 260.87"/></g></g></svg>