<svg xmlns="http://www.w3.org/2000/svg" viewBox="0 0 416.76 113.39"><defs><style>.cls-1,.cls-5{fill:#2b2a29;}.cls-1,.cls-2,.cls-3,.cls-4{fill-rule:evenodd;}.cls-2{fill:#d7b56d;}.cls-3{fill:#bb2b36;}.cls-4,.cls-6{fill:#fefefe;}.cls-7{fill:#5b5b5b;}</style></defs><title>logo en</title><g id="Layer_2" data-name="Layer 2"><g id="Layer_1-2" data-name="Layer 1"><path class="cls-1" d="M39.16,0h15A39.26,39.26,0,0,1,93.31,39.16V74.22a39.26,39.26,0,0,1-39.16,39.16h-15A39.26,39.26,0,0,1,0,74.22V39.16A39.26,39.26,0,0,1,39.16,0"/><path class="cls-2" d="M39.16.84h15A38.42,38.42,0,0,1,92.47,39.16V74.22a38.42,38.42,0,0,1-38.33,38.33h-15A38.42,38.42,0,0,1,.84,74.22V39.16A38.42,38.42,0,0,1,39.16.84"/><path class="cls-1" d="M39.16,7.53h15A31.72,31.72,0,0,1,85.78,39.16V74.22a31.73,31.73,0,0,1-31.63,31.63h-15A31.73,31.73,0,0,1,7.53,74.22V39.16A31.72,31.72,0,0,1,39.16,7.53"/><path class="cls-3" d="M39.16,9.2h15a30.05,30.05,0,0,1,30,30V74.22a30.05,30.05,0,0,1-30,30h-15a30,30,0,0,1-30-30V39.16a30,30,0,0,1,30-30"/><path class="cls-4" d="M47.37,62.7A3.47,3.47,0,0,1,49.18,65c.4,2.31-1.21,2.69-1.22,3.91,0,.92-.41.83-.62.13-.26-.88,1.49-2.22,0-3.16-.41,1.07,0,2-.73,2.44-2.73-2.65,1-3.51.71-5.65m1.82,7.12c-.93.28-1.39,1.33-2.13,1.72A1.37,1.37,0,0,1,45,70.23c0-.88.74-1.14.83-2,1,.5.74,2.14,1.89,1.89,1-.35.57-2,1.65-2.6.34.66.55,1.76-.14,2.32M28.88,60.38c-.28-1.46-.79-4.59-2.69-4-1.62.36-.3,4.21.06,5.4,1.46,4.89,1.09,7.08-1.57,11.56a7.7,7.7,0,0,0,1.86,2c.26-2.3.55-4.57.81-6.86,3.16-.84,2-5.82,1.53-8.14M39.57,36.54a4.9,4.9,0,0,0-1.74,1.38c-.67,0-1.25.08-1.89.12a13.72,13.72,0,0,1,2-4c.37-.56,1.21-1.22,1.13-1.87a4.34,4.34,0,0,0-.38-1.34,2.21,2.21,0,0,0-3.32-.57c-2.06,1.32-.13,1.46-.21,3.4-.09,2.18-3.39,3.58-4.15,5.73a17.51,17.51,0,0,0,1.83,1.06,2.77,2.77,0,0,0-2.65,1.65,3.33,3.33,0,0,0-4.58-.55,2.73,2.73,0,0,0-1,3.79c-4,2.39-1,5.66-3.12,7.6a3.63,3.63,0,0,0,.91.19,4.83,4.83,0,0,0,1.39,0c.44,0,.9-.07,1.36-.14L25,52.94a13.9,13.9,0,0,0,2.53-.75,5.68,5.68,0,0,0,3.34-3.55c.72.18,1,.53,1.71.59,2.21.19,3.5-1.55,4.77-2.89s2.68-3,3.81-2.61c.39,1.25,1.75,2.64,1.34,4.31a5.75,5.75,0,0,1-1.6,2.52c-1.72,1.63-3.83,1-6,.89s-4.19.35-6.61,3.58a6.55,6.55,0,0,0-2.79-1.17,4.81,4.81,0,0,0-5.06,4c-.28,2.71,3,11.19,1.28,11.39-.94.09-2-4.45-2.53-9.61V75.9A20,20,0,0,0,39.16,95.82h15A20,20,0,0,0,74.07,75.9V60.09L71.86,55.9c-2,1-4,2.05-6.1,3l0,0h0c1.06-2.32.52-5.39-.77-8.67s-2.47-5.69-.86-6.81a4.8,4.8,0,0,1,3.69-.59,4.36,4.36,0,0,1,1.3.78,1.46,1.46,0,0,0,2.3-1.26,1.76,1.76,0,0,0,1.14-.9,26.9,26.9,0,0,0-1.5-2.4c-1.7-.09-3.9-.52-4.59-2.31-1.6-.09-2.59-.79-2.3-2.77a3,3,0,0,0-1.83,1.36l-.3-2.18c-1.91,1.13-1.66,3.11-3.77,3.48-2.64.57-3.57,3.55-4.6,5.58l-.24-.11c.55-1.56,2.89-5.67-1.24-6.13a4.66,4.66,0,0,0-2.77.47c-1.26.43-.83-.59-.82-1.59a5.05,5.05,0,0,0,3.22-5.3c-.77-6.22-10.34-5.82-10.68.55a5,5,0,0,0,3.62,4.75c-.12,1.17-.24,1.71-1.6,1.51a9.45,9.45,0,0,0-1.77-.17,4.59,4.59,0,0,0-1.85.34M56.26,66.7l-.34-.63L53.37,66l2.46-.07-.28-.53-3.44-.31,3.16-.21L55,64.41l-3.56-.32,3.26-.22h0l-.33-.62L51.71,63l2.47-.17L54,62.55H51.33v-5L51,57l-.27,4.64-.24-5.58-.33-.61L49.74,61l-.44-5.73-.54,5.95-.44-4.45-.65,4.83L47.14,56l-.53,4.72-.35-5.36-.41,4.89-.53-4.48-.59,5.54L44.26,56l-.41,4.87-.57-3.34v5.07H36.15l5.19.46-5,.63,5.54.45-6,.59,5,.39-5.19.62,5.54.29-6,.83,6.37.19-5.55.64,5.75.54-6.16.58,5.9.51-6.08.61,6.76.08-4.4.74c1.64,0,3.59,0,5.3,0v6.72c.87,0-.19-3.29,1-4v4h.48V71.89c3.09,1.31,2.77-1,5.24-1.79V81.23c-.05,1.18.06,3.21,1.36,3.19V70.69h6.13l-5.07-.74,4.41-.14-.47-.35-2.51-.2,3.61-.39-.19-.36-3.65-.3,3.29-.36-.32-.59L53.63,67Zm14.2-6.44L65.87,63l6.45,4.59a4.53,4.53,0,0,0,.83-3.74c-.37-1.4-1.75-2.52-2.68-3.59"/><path class="cls-4" d="M23.65,31.93l.48,1.18,1.26-.18-.78,1,.78,1-1.26-.18-.48,1.17-.48-1.17-1.26.18.78-1-.78-1,1.26.18Zm38.6-8.74.48,1.18L64,24.2l-.78,1,.78,1L62.73,26l-.48,1.17L61.78,26l-1.26.17.78-1-.78-1,1.26.18ZM47,19l.48,1.18L48.69,20l-.78,1,.78,1-1.26-.17L47,23l-.48-1.17L45.22,22,46,21l-.78-1,1.26.18Zm23.3,12.9.48,1.18L72,32.93l-.78,1,.78,1-1.26-.18-.48,1.17-.48-1.17-1.26.18.78-1-.78-1,1.26.18ZM19.47,45.3l.48,1.17,1.26-.17-.78,1,.78,1-1.26-.17-.48,1.17L19,48.13l-1.26.17.78-1-.78-1,1.26.17Zm55,0,.48,1.17,1.26-.17-.78,1,.78,1-1.26-.17-.48,1.17L74,48.13l-1.26.17.78-1-.78-1,1.26.17ZM31.65,23.2l.48,1.18,1.26-.18-.78,1,.78,1L32.13,26l-.48,1.17L31.18,26l-1.26.17.78-1-.78-1,1.26.18Z"/><path class="cls-1" d="M59.52,89.67a12.12,12.12,0,0,1-2,3.48c.93-.42,1.81-.88,2.71-1.3A15.48,15.48,0,0,1,63,90.67a6.51,6.51,0,0,1-.18,3.18A11.78,11.78,0,0,0,64,91.26c.15.42.34,1.09.51,1.64a5.35,5.35,0,0,0,.32-2.31,4.86,4.86,0,0,1,.61,1.56,3.9,3.9,0,0,0,.33-1.83,10.06,10.06,0,0,1,1.07.65,3.66,3.66,0,0,0-1-1.72c-1.24-.75-3.15-.11-4.41.66,1.69-4.75,9.38-4.85,9.43-11,0-2-1-3.31-1.71-4.71.68-.17,1.26-.49,1.3-1.18.05-1-3.12-2.67-4-2.95-.59.65-1.36,1.3-2.77-.06-.5-.48-.59-1.63-1.18-1.71-.22,0-.23.3-.56.46s-.92.15-1.07.54a.64.64,0,0,0,.23.88c.71.43.57.56.19,1.28.22-.09.79-.57,1-.33s-.21.64-.43.88c.3,0,.56-.13.81-.15.92-.06,1.2,1.16.85,1.85a1.72,1.72,0,0,1-1.11,1c-.34.07-1.22,0-1.26-.44,0-.19,0-.44,0-.64-.18.24-.41.75-.64.68s-.09-.63-.15-1c-.21.24-.38.61-.51.75a2.38,2.38,0,0,0-1.4.1c-.12.09-.17.22-.08.28,1.11.64,3.34,2.06,4.94,2.15,1,.06,1.15-.47,1.9-.76.55-.16.94,1.16,1.13,2.18.45,2.52-2.3,4.3-4.37,5.07A9.72,9.72,0,0,0,60,83c.78-1,2.77-1.18,3.18-2.16a2.63,2.63,0,0,0-1-3.27c.14.43.46,1.42,0,1.44s-1-1-1.58-1.23c.29.59,1,1.53.71,1.78s-1.64-1-2-1.25c.19.48,1.26,1.47,1,1.7s-1.06-.45-1.76-.87a11.86,11.86,0,0,1,1.18,1.79c.49,1.16-4.35,2.58-4.11,3.12.09.21,1.32.08,3.15.12-4.78,1.64-8.23,1.64-11.26-1.3a1.91,1.91,0,0,0-.12,1,33.81,33.81,0,0,1-5.72-3.77,2.91,2.91,0,0,0,.12.94,22.34,22.34,0,0,0-8.43-2.83c-.12.17.15.76.34.94-1.22,0-4.87.46-6.24,1.3,1,.22,1.28.65.3,1.47-1.14,1-2.46,1.69-3.65,2.65,2-.2,1.51,1.07.59,2.18,1.08-.11,1.24.52.65,2,1.25-.57.86,1.69.8,1.9l.4.39c1.07-.25,1.16,1.57,2.49,2-.24-.21-.39-.67.1-.58s.66.76,1.15.85c1.36-1,3.06,1,3.65,0,.34,0,2.58.3,2.44-.21C36.25,92.43,38,93,38.13,93c.38.08-.06-.38.52-.39.28,0,.6,0,.6-.19.46,0,.27-.36.71-.18s.53-.3,1.06-.18a.65.65,0,0,1,.65-.18c.05-.18.24-.24.41-.3-.49,0-2.09.24-1.77-.23-.66.14-1.77.5-2,.32-.06,0,0-.18.13-.32-.38.06-2,.51-2.28.16-.09-.12.07-.24.28-.39-4.72,1.32-7.34-3.45-5.55-5.78,2.94-3.82,9.75,3.22,14.21,4.36-.59.75-1.89.79-3.24.77a18.43,18.43,0,0,1,4.79,2c.44.33.37.61.12.86A14.43,14.43,0,0,1,44.43,95a13.18,13.18,0,0,0,3-1.18c-.23.46-.75,1.11-1.06,1.71.64-.35,1.43-1,2.12-1.54a19.13,19.13,0,0,1-.88,2,14.15,14.15,0,0,0,1.27-1.28c1-1,.68.46.67,1.1a3.35,3.35,0,0,0,.83-1.36c.7-2.61-2.45-3.09-4.24-3.3,1.83-1.08,4.87.2,7,.11a16.85,16.85,0,0,0,6.4-1.64"/><polygon class="cls-1" points="37.3 31.6 38.04 31.02 40.9 36.24 55.37 62.55 58.89 69.09 59.69 68.03 60.7 72.75 56.32 69.45 57.81 69.57 37.3 31.6"/><path class="cls-5" d="M45.65,5.5A.49.49,0,0,0,46,5.35a.83.83,0,0,0,.14-.55A.65.65,0,0,0,46,4.35a.44.44,0,0,0-.33-.16.53.53,0,0,0-.41.16.65.65,0,0,0-.15.46.76.76,0,0,0,.15.54.5.5,0,0,0,.36.15m0,.5a1.05,1.05,0,0,1-.78-.32,1.21,1.21,0,0,1-.3-.88,1.14,1.14,0,0,1,.25-.74.88.88,0,0,1,.62-.34l0-.26c0-.16-.08-.29-.29-.37a.5.5,0,0,1-.31-.52h.57q0,.17.29.3a.49.49,0,0,1,.25.56l-.06.3a.84.84,0,0,1,.54.34,1.11,1.11,0,0,1,.25.73,1.22,1.22,0,0,1-.31.87,1,1,0,0,1-.77.33m-3.5-2.46c0-.33-.11-.49-.34-.49a.41.41,0,0,0-.39.25,2,2,0,0,0-.12.86A3,3,0,0,0,42,5.95h-.74a3.49,3.49,0,0,1-.53-1.73A2,2,0,0,1,41,3a.94.94,0,0,1,.75-.39.72.72,0,0,1,.63.41.7.7,0,0,1,.63-.4.92.92,0,0,1,.75.39,2,2,0,0,1,.3,1.25,3.44,3.44,0,0,1-.53,1.74h-.72a3,3,0,0,0,.68-1.79,2.08,2.08,0,0,0-.12-.86A.41.41,0,0,0,43,3c-.24,0-.35.16-.35.49V4.63h-.53Zm-6,1.8.35-.06a1.81,1.81,0,0,1-.78-1.39A1.29,1.29,0,0,1,36,3a1,1,0,0,1,.72-.35.71.71,0,0,1,.62.3.65.65,0,0,1,.57-.33.69.69,0,0,1,.6.29.53.53,0,0,1,.25-.25.91.91,0,0,1,.35-.07,1,1,0,0,1,.74.28,1.28,1.28,0,0,1,.33.92,1.94,1.94,0,0,1-.34,1h-.71a1.72,1.72,0,0,0,.49-1,.93.93,0,0,0-.15-.6A.45.45,0,0,0,39.17,3q-.36,0-.35.57v.56h-.52V3.63c0-.37-.12-.55-.34-.55s-.32.19-.31.56v.56h-.52V3.66q0-.56-.36-.55a.45.45,0,0,0-.31.16.86.86,0,0,0-.14.6,1.64,1.64,0,0,0,1,1.3,5.47,5.47,0,0,1,1.55.17A.76.76,0,0,1,39.4,6l-.69,0a.5.5,0,0,0-.44-.3,5,5,0,0,0-.79,0,4.14,4.14,0,0,0-1.27.18Zm-1-.23A1.06,1.06,0,0,1,35,6a1.21,1.21,0,0,1-.75.36,1.28,1.28,0,0,1-.73-.13.9.9,0,0,1-.44-.76,1.23,1.23,0,0,1,.09-.58l.51.17a1.13,1.13,0,0,0,0,.44.4.4,0,0,0,.18.3.52.52,0,0,0,.35.07.58.58,0,0,0,.4-.18.71.71,0,0,0,.06-.51l-.19-1.45a.31.31,0,0,0-.15-.24.58.58,0,0,0-.37,0,.47.47,0,0,0-.35.15.37.37,0,0,0-.06.25.54.54,0,0,0,.14.3l-.45.28a.91.91,0,0,1-.24-.5.76.76,0,0,1,.2-.62A1,1,0,0,1,33.9,3a1.11,1.11,0,0,1,.81.15.81.81,0,0,1,.35.55ZM31.65,6.36A.47.47,0,0,0,32,6.1a.8.8,0,0,0,0-.56.76.76,0,0,0-.27-.47.48.48,0,0,0-.4-.09.45.45,0,0,0-.32.25.84.84,0,0,0,0,.54.89.89,0,0,0,.25.49.44.44,0,0,0,.41.08m.12.49A1.08,1.08,0,0,1,31,6.7a1.29,1.29,0,0,1-.54-.87l-.48-2.09.55-.13.29,1.23a.72.72,0,0,1,.45-.33,1.06,1.06,0,0,1,.81.12,1.17,1.17,0,0,1,.51.79,1.21,1.21,0,0,1-.11.93,1,1,0,0,1-.67.49M28.28,4.22a1.3,1.3,0,0,0,.74.71,1.58,1.58,0,0,1,.84,1,1.61,1.61,0,0,1,0,1,1,1,0,0,1-1.51.51,1.56,1.56,0,0,1-.57-.81,1.5,1.5,0,0,1-.06-.75h.55a2.31,2.31,0,0,0,.07.62,1,1,0,0,0,.33.55.44.44,0,0,0,.4,0,.42.42,0,0,0,.32-.36,1.43,1.43,0,0,0-.08-.59,1.33,1.33,0,0,0-.77-.81,1.42,1.42,0,0,1-.79-.9ZM26.4,5.67a1.17,1.17,0,0,0,.49.65,1.16,1.16,0,0,1,.49.64,1.09,1.09,0,0,1,0,.85,1.07,1.07,0,0,1-2-.09l-.84-2.11L25,5.41l.84,2.1a.76.76,0,0,0,.32.41.42.42,0,0,0,.4,0,.5.5,0,0,0,.29-.28.68.68,0,0,0,0-.49,1,1,0,0,0-.44-.53,1.41,1.41,0,0,1-.53-.76Zm-4,1.8A1.17,1.17,0,0,0,23,8a1.16,1.16,0,0,1,.58.57,1.1,1.1,0,0,1,.12.85,1.07,1.07,0,0,1-2,.19l-1.13-2,.49-.28,1.13,2a.76.76,0,0,0,.38.36.42.42,0,0,0,.4,0,.5.5,0,0,0,.25-.32.68.68,0,0,0-.1-.48,1,1,0,0,0-.51-.47,1.42,1.42,0,0,1-.64-.67Zm-1.32,3.85a6.63,6.63,0,0,0-.73-1.68A1.77,1.77,0,0,0,19.81,9a.41.41,0,0,0-.45,0,.43.43,0,0,0-.16.42,1.76,1.76,0,0,0,.32.77,6.19,6.19,0,0,0,1.24,1.36l-.53.34a8.77,8.77,0,0,1-1.15-1.35,2.19,2.19,0,0,1-.39-1.14A.94.94,0,0,1,20,8.54a2.17,2.17,0,0,1,.87.84A8.87,8.87,0,0,1,21.63,11Zm-5,3,.23-.27a1.81,1.81,0,0,1-1.49-.57,1.29,1.29,0,0,1-.37-.88,1,1,0,0,1,.34-.73.7.7,0,0,1,.66-.17.65.65,0,0,1,.23-.61.68.68,0,0,1,.65-.16.52.52,0,0,1,0-.35.92.92,0,0,1,.23-.28,1,1,0,0,1,.75-.25,1.27,1.27,0,0,1,.84.5,2,2,0,0,1,.39,1l-.54.46a1.73,1.73,0,0,0-.28-1.1.93.93,0,0,0-.5-.37.44.44,0,0,0-.35.11q-.28.23.1.66l.37.42-.39.34-.37-.42q-.36-.42-.61-.21t.12.63l.37.42-.39.34-.37-.42c-.25-.28-.46-.35-.63-.2a.45.45,0,0,0-.14.32.86.86,0,0,0,.28.55,1.64,1.64,0,0,0,1.58.39,5.46,5.46,0,0,1,1.3-.86.77.77,0,0,1,.83.14l-.52.45a.5.5,0,0,0-.53.05,4.88,4.88,0,0,0-.63.47,4.19,4.19,0,0,0-.87.95Zm-.75,1.72a6.64,6.64,0,0,0-1.11-1.46,1.76,1.76,0,0,0-.7-.46.41.41,0,0,0-.44.09.43.43,0,0,0-.06.45,1.74,1.74,0,0,0,.49.67,6.18,6.18,0,0,0,1.53,1l-.44.46a8.73,8.73,0,0,1-1.44-1,2.18,2.18,0,0,1-.65-1,.94.94,0,0,1,1.09-1.15,2.18,2.18,0,0,1,1,.61,8.91,8.91,0,0,1,1.11,1.39Zm-3.22-.25a.76.76,0,0,1,.3.67.94.94,0,0,1,.86.18,1.12,1.12,0,0,1,.46.72,1.05,1.05,0,0,1-.26.82,1.09,1.09,0,0,1-.7.45,1,1,0,0,1-.78-.25,1.57,1.57,0,0,1-.33-.39l.45-.36a1,1,0,0,0,.31.39.4.4,0,0,0,.33.08.55.55,0,0,0,.33-.22.58.58,0,0,0,.14-.37.33.33,0,0,0-.11-.27l-.26-.21a.66.66,0,0,0-.3-.15.25.25,0,0,0-.24.11l-.16.21-.39-.3.16-.21a.21.21,0,0,0,0-.21.58.58,0,0,0-.2-.24.38.38,0,0,0-.29-.08.41.41,0,0,0-.29.17.49.49,0,0,0-.14.36.31.31,0,0,0,.12.2.6.6,0,0,0,.22.1l-.2.53a1.32,1.32,0,0,1-.39-.2.7.7,0,0,1-.25-.57,1.11,1.11,0,0,1,.26-.72,1,1,0,0,1,.65-.4.85.85,0,0,1,.65.17M11.52,20a.47.47,0,0,0,.08-.39.72.72,0,0,0-.32-.4.7.7,0,0,0-.47-.16.51.51,0,0,0-.43.6.69.69,0,0,0,.31.4.72.72,0,0,0,.49.17.5.5,0,0,0,.34-.22m-2.18-1c-.06,0-.15,0-.27.19l-.17.24-.4-.28.18-.26a.6.6,0,0,1,.55-.3A.74.74,0,0,1,9.38,18a.62.62,0,0,1,.4-.28.54.54,0,0,1,.43.1l1.39,1a1.08,1.08,0,0,1,.52.76,1.09,1.09,0,0,1-.2.78,1.07,1.07,0,0,1-.69.46,1.13,1.13,0,0,1-.87-.24,1.11,1.11,0,0,1-.51-.73,1.08,1.08,0,0,1,.22-.8.84.84,0,0,1,.44-.31l-.6-.43c-.06,0-.14,0-.25.16s-.08.18,0,.22l.21.15-.3.42Zm1.26,3.21a6.64,6.64,0,0,0-1.43-1.15,1.77,1.77,0,0,0-.79-.28A.41.41,0,0,0,8,21a.43.43,0,0,0,0,.45,1.74,1.74,0,0,0,.63.54,6.21,6.21,0,0,0,1.73.63l-.32.55a8.72,8.72,0,0,1-1.65-.67,2.19,2.19,0,0,1-.88-.83.94.94,0,0,1,.79-1.38,2.17,2.17,0,0,1,1.16.34,8.89,8.89,0,0,1,1.41,1.09ZM8.87,24.54a.47.47,0,0,0,0-.37.79.79,0,0,0-.42-.36.74.74,0,0,0-.48-.1.44.44,0,0,0-.31.24.53.53,0,0,0,0,.42.65.65,0,0,0,.35.36.68.68,0,0,0,.55.1.57.57,0,0,0,.3-.28m.44.22a1,1,0,0,1-.67.56,1.2,1.2,0,0,1-.88-.1l-1.34-.69A.67.67,0,0,1,6,24.06a.82.82,0,0,1,.06-.54l.55-1.08.43.22-.52,1c-.08.15-.05.27.08.34l.6.31a.77.77,0,0,1,0-.59,1.06,1.06,0,0,1,.58-.54,1.09,1.09,0,0,1,.89.12,1.15,1.15,0,0,1,.63.66,1,1,0,0,1-.07.8m-4.2,1a1.3,1.3,0,0,0,1-.11,1.58,1.58,0,0,1,1.29,0,1.59,1.59,0,0,1,.76.61,1,1,0,0,1-.58,1.48,1.56,1.56,0,0,1-1-.08A1.48,1.48,0,0,1,6,27.26l.35-.42a2.34,2.34,0,0,0,.52.34,1,1,0,0,0,.63.1A.44.44,0,0,0,7.79,27a.42.42,0,0,0-.07-.48,1.41,1.41,0,0,0-.51-.32,1.33,1.33,0,0,0-1.11.07,1.41,1.41,0,0,1-1.2,0Zm.84,2.91a1.55,1.55,0,0,0-.85-.07.93.93,0,0,0-.45.3l1.56.38-.15.52-1.52-.5a.86.86,0,0,0,.22.49,1.56,1.56,0,0,0,.78.4,1.51,1.51,0,0,0,.84,0,.66.66,0,0,0,.47-.5.72.72,0,0,0-.15-.68,1.58,1.58,0,0,0-.74-.4m.17-.56a1.82,1.82,0,0,1,1,.68,1.23,1.23,0,0,1,.15,1.09,1.19,1.19,0,0,1-.72.85,1.91,1.91,0,0,1-1.22,0,1.55,1.55,0,0,1-1.05-.71,1.48,1.48,0,0,1-.18-.81H4l.15-.52.15.08a1.41,1.41,0,0,1,.55-.59,1.67,1.67,0,0,1,1.32-.07m-2,3.47a1.17,1.17,0,0,0,.81-.08,1.17,1.17,0,0,1,.8-.08,1.1,1.1,0,0,1,.73.45A1.07,1.07,0,0,1,5.3,33.59l-2.23-.39.1-.55,2.23.4A.76.76,0,0,0,5.91,33a.42.42,0,0,0,.23-.32.5.5,0,0,0-.09-.4A.67.67,0,0,0,5.61,32a1,1,0,0,0-.69.1,1.41,1.41,0,0,1-.93.05ZM2.83,34.77a1.3,1.3,0,0,0,1-.36A1.59,1.59,0,0,1,5,34.1a1.61,1.61,0,0,1,.88.4,1,1,0,0,1-.21,1.58,1.55,1.55,0,0,1-1,.16A1.51,1.51,0,0,1,4,36l.24-.49a2.32,2.32,0,0,0,.59.2,1,1,0,0,0,.63-.05.45.45,0,0,0,.22-.34.42.42,0,0,0-.18-.45A1.42,1.42,0,0,0,5,34.65,1.33,1.33,0,0,0,3.92,35a1.41,1.41,0,0,1-1.15.32ZM4.46,37.9a.48.48,0,0,0-.16-.36.76.76,0,0,0-.53-.17.76.76,0,0,0-.51.13.47.47,0,0,0-.18.37.49.49,0,0,0,.17.36.72.72,0,0,0,.51.18.75.75,0,0,0,.54-.15.49.49,0,0,0,.18-.35M5.22,40l0-.32a2,2,0,0,1-1.41.54,1.42,1.42,0,0,1-.9-.29,1,1,0,0,1-.32-.82,1,1,0,0,1,.24-.62,1,1,0,0,1-.2-.62,1.07,1.07,0,0,1,.32-.76,1.15,1.15,0,0,1,.88-.29,1.18,1.18,0,0,1,.85.34,1,1,0,0,1,.3.77,1,1,0,0,1-.34.74,1.16,1.16,0,0,1-.87.3,1.31,1.31,0,0,1-.61-.19A1,1,0,0,0,3,39.1a.48.48,0,0,0,.16.38.9.9,0,0,0,.59.17,1.83,1.83,0,0,0,.73-.13A1.74,1.74,0,0,0,5.17,39a3.05,3.05,0,0,1,.27-1.06A.78.78,0,0,1,6,37.53l0,.76a.26.26,0,0,0-.24.15,1.8,1.8,0,0,0-.1.69,4.62,4.62,0,0,0,0,.87Zm0,4.79-.05-.35a1.81,1.81,0,0,1-1.41.75,1.3,1.3,0,0,1-.91-.3,1,1,0,0,1-.33-.73.71.71,0,0,1,.31-.61A.65.65,0,0,1,2.56,43a.69.69,0,0,1,.3-.6.52.52,0,0,1-.24-.25.93.93,0,0,1-.06-.36,1,1,0,0,1,.3-.73,1.27,1.27,0,0,1,.93-.3,1.94,1.94,0,0,1,1,.36v.71a1.73,1.73,0,0,0-1-.51.94.94,0,0,0-.6.14.45.45,0,0,0-.14.34c0,.24.18.36.56.36h.56v.52H3.61c-.37,0-.55.11-.55.32s.19.33.55.33h.56v.52H3.61q-.56,0-.56.35a.45.45,0,0,0,.15.32.86.86,0,0,0,.59.15,1.64,1.64,0,0,0,1.33-.94,5.49,5.49,0,0,1,.21-1.55A.77.77,0,0,1,6,41.59v.69a.5.5,0,0,0-.31.43,4.77,4.77,0,0,0-.06.79,4.14,4.14,0,0,0,.14,1.27Zm-2.7,1.81a1.29,1.29,0,0,0,.91-.48,1.58,1.58,0,0,1,1.2-.48,1.6,1.6,0,0,1,.93.28.93.93,0,0,1,.4.81.92.92,0,0,1-.4.78,1.56,1.56,0,0,1-.95.29,1.5,1.5,0,0,1-.73-.18l.18-.52a2.31,2.31,0,0,0,.61.13,1,1,0,0,0,.62-.14.44.44,0,0,0,.17-.36.42.42,0,0,0-.24-.42,1.41,1.41,0,0,0-.59-.11,1.33,1.33,0,0,0-1,.47,1.41,1.41,0,0,1-1.1.46Zm.91,2.78a.66.66,0,0,0-.3.06.27.27,0,0,0-.12.27.38.38,0,0,0,.07.27.52.52,0,0,0,.35.08.52.52,0,0,0,.39-.12.72.72,0,0,1-.14-.51.51.51,0,0,0-.24,0m2,0A.51.51,0,0,0,5.34,49a.76.76,0,0,0-.52-.14.67.67,0,0,0-.47.15.51.51,0,0,0,0,.74.68.68,0,0,0,.47.14.72.72,0,0,0,.52-.15.54.54,0,0,0,.16-.36m.49,0a1.1,1.1,0,0,1-.3.76,1.14,1.14,0,0,1-.87.32,1.18,1.18,0,0,1-.58-.18,1.18,1.18,0,0,1-.32.25.93.93,0,0,1-.45.1,1,1,0,0,1-.66-.22.83.83,0,0,1-.24-.64A.77.77,0,0,1,2.84,49a1,1,0,0,1,.57-.2,1.22,1.22,0,0,1,.34,0,1,1,0,0,1,1.06-.63A1.09,1.09,0,0,1,6,49.33m-.05,3.9a6.62,6.62,0,0,0-1.81-.29,1.75,1.75,0,0,0-.82.15.41.41,0,0,0-.26.37.43.43,0,0,0,.26.36,1.76,1.76,0,0,0,.82.15,6.23,6.23,0,0,0,1.81-.31v.63a8.76,8.76,0,0,1-1.76.24A2.19,2.19,0,0,1,3,54.25a.94.94,0,0,1,0-1.59,2.18,2.18,0,0,1,1.18-.28,8.91,8.91,0,0,1,1.76.24ZM3.44,55a.76.76,0,0,1,.65.34A.94.94,0,0,1,4.88,55a1.13,1.13,0,0,1,.81.28,1.05,1.05,0,0,1,.3.8,1.09,1.09,0,0,1-.27.79,1,1,0,0,1-.77.28,1.57,1.57,0,0,1-.5-.1l.13-.56a1,1,0,0,0,.48.11.4.4,0,0,0,.31-.14.55.55,0,0,0,.13-.38.59.59,0,0,0-.12-.38.33.33,0,0,0-.26-.14H4.79a.66.66,0,0,0-.33.07.25.25,0,0,0-.12.23v.26H3.85v-.26a.21.21,0,0,0-.1-.19.57.57,0,0,0-.31-.07.39.39,0,0,0-.28.11A.41.41,0,0,0,3,56a.49.49,0,0,0,.11.37.31.31,0,0,0,.21.08.61.61,0,0,0,.24-.06l.17.54a1.31,1.31,0,0,1-.43.08.7.7,0,0,1-.55-.29A1.11,1.11,0,0,1,2.56,56a1,1,0,0,1,.27-.72A.85.85,0,0,1,3.44,55m2.5,3.41a6.66,6.66,0,0,0-1.81-.29,1.75,1.75,0,0,0-.82.15.41.41,0,0,0-.26.37.42.42,0,0,0,.26.36,1.74,1.74,0,0,0,.82.15,6.23,6.23,0,0,0,1.81-.31v.63a8.76,8.76,0,0,1-1.76.24A2.2,2.2,0,0,1,3,59.47a.94.94,0,0,1,0-1.59,2.18,2.18,0,0,1,1.18-.28,8.91,8.91,0,0,1,1.76.24ZM4.75,60.77a.7.7,0,0,0-.44.17.6.6,0,0,0-.21.49.59.59,0,0,0,.22.46.67.67,0,0,0,.44.19.7.7,0,0,0,.59-.2.74.74,0,0,0,.15-.44A.79.79,0,0,0,5.35,61a.68.68,0,0,0-.6-.21m0-.56A1.17,1.17,0,0,1,6,61.43a1.16,1.16,0,0,1-.35.89,1.18,1.18,0,0,1-.88.32A1.09,1.09,0,0,1,4,62.32a1.14,1.14,0,0,1-.36-.88v-.16a.51.51,0,0,0-.34-.1.2.2,0,0,0-.17.07.51.51,0,0,0,0,.3q0,.23.08.29a.43.43,0,0,0,.24.06v.54a.69.69,0,0,1-.62-.26,1.09,1.09,0,0,1-.18-.63,1.15,1.15,0,0,1,.16-.63.56.56,0,0,1,.51-.26,1,1,0,0,1,.52.13,1.22,1.22,0,0,1,1-.57"/><path class="cls-5" d="M87.37,61.8a6.59,6.59,0,0,0,1.81.29,1.75,1.75,0,0,0,.82-.15.41.41,0,0,0,.26-.37.43.43,0,0,0-.27-.37,1.75,1.75,0,0,0-.82-.15,6.24,6.24,0,0,0-1.81.31v-.63a8.85,8.85,0,0,1,1.76-.24,2.18,2.18,0,0,1,1.17.28.94.94,0,0,1,0,1.59,2.18,2.18,0,0,1-1.18.28,8.92,8.92,0,0,1-1.76-.24ZM87.82,59a.47.47,0,0,0,.15.37.72.72,0,0,0,.49.14.71.71,0,0,0,.48-.14.51.51,0,0,0,0-.74.69.69,0,0,0-.48-.15.72.72,0,0,0-.5.14.49.49,0,0,0-.15.38m2.33-.48c.07,0,.11-.1.11-.31v-.29h.48v.32a.6.6,0,0,1-.27.56.74.74,0,0,1,.28.65.63.63,0,0,1-.17.46.54.54,0,0,1-.41.17h-1.7a1.08,1.08,0,0,1-.86-.32,1.09,1.09,0,0,1-.29-.75,1.07,1.07,0,0,1,.3-.77,1.31,1.31,0,0,1,1.68,0,1.09,1.09,0,0,1,.28.78.84.84,0,0,1-.18.51h.74c.07,0,.11-.09.11-.27s0-.2-.11-.2h-.26v-.52ZM90,57a1.18,1.18,0,0,0-.79.22,1.16,1.16,0,0,1-.78.22,1.1,1.1,0,0,1-.79-.32,1.07,1.07,0,0,1,.83-1.84h2.27v.56H88.48A.77.77,0,0,0,88,56a.42.42,0,0,0-.17.36.5.5,0,0,0,.15.37.68.68,0,0,0,.47.15,1,1,0,0,0,.66-.21,1.41,1.41,0,0,1,.9-.22Zm-2.64-3.06a6.62,6.62,0,0,0,1.81.29,1.75,1.75,0,0,0,.82-.15.41.41,0,0,0,.26-.37.43.43,0,0,0-.27-.36,1.76,1.76,0,0,0-.82-.15,6.24,6.24,0,0,0-1.81.31v-.63a8.79,8.79,0,0,1,1.76-.24,2.19,2.19,0,0,1,1.17.28.94.94,0,0,1,0,1.59,2.18,2.18,0,0,1-1.18.28,9,9,0,0,1-1.76-.24Zm.69-5.82.05.35a1.81,1.81,0,0,1,1.41-.75,1.3,1.3,0,0,1,.91.3,1,1,0,0,1,.33.73.71.71,0,0,1-.31.61.65.65,0,0,1,.31.58.68.68,0,0,1-.3.59.53.53,0,0,1,.24.26.93.93,0,0,1,.06.35,1,1,0,0,1-.3.73,1.27,1.27,0,0,1-.93.3,1.94,1.94,0,0,1-1-.36v-.71a1.73,1.73,0,0,0,1,.51.92.92,0,0,0,.6-.14.44.44,0,0,0,.14-.34q0-.36-.56-.36h-.56v-.52h.56c.37,0,.56-.11.56-.32s-.18-.33-.56-.33h-.56v-.52h.56c.38,0,.56-.12.56-.35a.44.44,0,0,0-.15-.31.85.85,0,0,0-.6-.15,1.64,1.64,0,0,0-1.33.94A5.45,5.45,0,0,1,88,50.75a.77.77,0,0,1-.65.54V50.6a.5.5,0,0,0,.31-.43,4.86,4.86,0,0,0,.06-.79,4.14,4.14,0,0,0-.14-1.27Zm-.69-1.7a6.66,6.66,0,0,0,1.81.29,1.76,1.76,0,0,0,.82-.15.41.41,0,0,0,.26-.37.43.43,0,0,0-.27-.37,1.78,1.78,0,0,0-.82-.15,6.24,6.24,0,0,0-1.81.31v-.63a8.71,8.71,0,0,1,1.76-.24,2.19,2.19,0,0,1,1.17.28.94.94,0,0,1,0,1.59,2.18,2.18,0,0,1-1.18.28A8.85,8.85,0,0,1,87.37,47Zm.45-2.84a.48.48,0,0,0,.15.38.83.83,0,0,0,.55.14.65.65,0,0,0,.45-.15.44.44,0,0,0,.16-.33.53.53,0,0,0-.16-.41.64.64,0,0,0-.46-.15.76.76,0,0,0-.54.15.49.49,0,0,0-.15.36m-.5,0a1.05,1.05,0,0,1,.32-.78,1.22,1.22,0,0,1,.88-.3,1.14,1.14,0,0,1,.74.25.88.88,0,0,1,.34.62l.26,0c.16,0,.29-.08.37-.29a.5.5,0,0,1,.52-.31v.57c-.12,0-.22.09-.31.29a.49.49,0,0,1-.56.26l-.3-.06a.85.85,0,0,1-.34.54,1.11,1.11,0,0,1-.73.25,1.21,1.21,0,0,1-.87-.31,1,1,0,0,1-.33-.77m.5-3.92a.43.43,0,0,0,.27.36,2.22,2.22,0,0,0,1,.16A2.15,2.15,0,0,0,90,40a.42.42,0,0,0,.27-.37.41.41,0,0,0-.27-.39,2.49,2.49,0,0,0-.94-.13,2.16,2.16,0,0,0-1,.16q-.28.15-.27.36m-.47,1.16a3.24,3.24,0,0,0,1.88.67,1.55,1.55,0,0,0,.78-.16.44.44,0,0,0,.1-.73,4,4,0,0,1-1.05.14,2.17,2.17,0,0,1-1.31-.32,1,1,0,0,1-.43-.75,1,1,0,0,1,.43-.76,2.19,2.19,0,0,1,1.34-.33,2.16,2.16,0,0,1,1.24.3.91.91,0,0,1,.42.79,1,1,0,0,1-.27.63.8.8,0,0,1,.27.61,1,1,0,0,1-.43.86,2,2,0,0,1-1.1.28,3.23,3.23,0,0,1-1.88-.59Zm3.22-5.42a1.3,1.3,0,0,0-.84.59,1.59,1.59,0,0,1-1.13.63,1.61,1.61,0,0,1-1-.16.93.93,0,0,1-.5-.75.92.92,0,0,1,.3-.83,1.56,1.56,0,0,1,.9-.41,1.49,1.49,0,0,1,.75.08l-.11.54a2.34,2.34,0,0,0-.62,0,1,1,0,0,0-.6.22.44.44,0,0,0-.12.38.42.42,0,0,0,.29.39,1.4,1.4,0,0,0,.6,0,1.32,1.32,0,0,0,.94-.6,1.41,1.41,0,0,1,1-.6Zm-3.72-2a6.65,6.65,0,0,0,1.83,0,1.75,1.75,0,0,0,.79-.29.41.41,0,0,0,.19-.41.43.43,0,0,0-.32-.31,1.74,1.74,0,0,0-.83,0,6.21,6.21,0,0,0-1.73.62l-.11-.62a8.78,8.78,0,0,1,1.7-.54,2.18,2.18,0,0,1,1.2.07.94.94,0,0,1,.28,1.57,2.18,2.18,0,0,1-1.11.48,9,9,0,0,1-1.78.07Zm-.18-2.9a.51.51,0,0,0,.26.33.6.6,0,0,0,.46,0,.75.75,0,0,0,.47-.3.51.51,0,0,0,0-.41.47.47,0,0,0-.25-.3.81.81,0,0,0-.56,0,.62.62,0,0,0-.38.25.47.47,0,0,0,0,.39m.87.88a1.07,1.07,0,0,1-1.35-.75,1,1,0,0,1,.1-.82,1.1,1.1,0,0,1,.66-.5,1.25,1.25,0,0,1,.9,0,1,1,0,0,1,.53.66.85.85,0,0,1,0,.56l.46-.13a.3.3,0,0,0,.23-.19.74.74,0,0,0-.18-.69.41.41,0,0,0-.31,0l-.15-.53a.76.76,0,0,1,.71.09,1.21,1.21,0,0,1,.41.66,1.13,1.13,0,0,1,0,.77.75.75,0,0,1-.5.45Zm-.71-2.56a1.06,1.06,0,0,1-.92,0,1.21,1.21,0,0,1-.5-.66,1.27,1.27,0,0,1,0-.74.9.9,0,0,1,.66-.58,1.2,1.2,0,0,1,.59,0l-.07.54a1.11,1.11,0,0,0-.44.05.39.39,0,0,0-.26.23.52.52,0,0,0,0,.36.59.59,0,0,0,.26.36.71.71,0,0,0,.52,0L88,27.76a.31.31,0,0,0,.2-.2.58.58,0,0,0,0-.37c-.06-.17-.13-.28-.22-.31a.36.36,0,0,0-.26,0,.53.53,0,0,0-.27.2l-.36-.38a.92.92,0,0,1,.44-.33.76.76,0,0,1,.65.08,1,1,0,0,1,.47.6,1.11,1.11,0,0,1,0,.82.8.8,0,0,1-.48.45Zm-1-3.72a.48.48,0,0,0,.3.25,1,1,0,0,0,1-.42.47.47,0,0,0,0-.41.49.49,0,0,0-.3-.25.72.72,0,0,0-.53.06.75.75,0,0,0-.42.37.49.49,0,0,0,0,.39m-1.6-1.54.17.27a2,2,0,0,1,1-1.1,1.42,1.42,0,0,1,.94-.13,1,1,0,0,1,.64.6.94.94,0,0,1,.06.66,1,1,0,0,1,.45.47,1.07,1.07,0,0,1,0,.82,1.14,1.14,0,0,1-.67.64,1.18,1.18,0,0,1-.92.07,1,1,0,0,1-.61-.56,1,1,0,0,1,0-.82,1.15,1.15,0,0,1,.65-.66,1.32,1.32,0,0,1,.63-.1,1,1,0,0,0-.08-.33.48.48,0,0,0-.31-.27.92.92,0,0,0-.6.11,1.79,1.79,0,0,0-.6.43,1.75,1.75,0,0,0-.36.74A3,3,0,0,1,85,25.44a.77.77,0,0,1-.35.63l-.32-.69a.25.25,0,0,0,.14-.24,1.76,1.76,0,0,0-.21-.66,4.69,4.69,0,0,0-.42-.76Zm1.44-2.82a1.29,1.29,0,0,0-.55.86,1.58,1.58,0,0,1-.8,1,1.61,1.61,0,0,1-.95.21.93.93,0,0,1-.75-.5.92.92,0,0,1,0-.88,1.56,1.56,0,0,1,.68-.72,1.5,1.5,0,0,1,.72-.21l.11.54a2.34,2.34,0,0,0-.59.19,1,1,0,0,0-.47.43.44.44,0,0,0,0,.4.42.42,0,0,0,.41.25,1.42,1.42,0,0,0,.56-.2,1.33,1.33,0,0,0,.64-.91,1.41,1.41,0,0,1,.73-1Zm-3.29-.79a1.12,1.12,0,0,0,.41-.43.34.34,0,0,0,0-.32l-.14-.2.4-.28.1.14a.36.36,0,0,0,.2.17.49.49,0,0,0,.3-.13A1.47,1.47,0,0,0,84,18l.4.55a1,1,0,0,1-.37.74.84.84,0,0,1-.67.16,1.24,1.24,0,0,1-.56.89,1,1,0,0,1-.83.22,1.13,1.13,0,0,1-.69-.48,1.12,1.12,0,0,1-.22-.77,1.06,1.06,0,0,1,.5-.74,1.74,1.74,0,0,1,.61-.28l.11.52a1.29,1.29,0,0,0-.37.21q-.32.23-.34.42a.49.49,0,0,0,.11.36A.48.48,0,0,0,82,20a.68.68,0,0,0,.41-.15m-.07-4a1.29,1.29,0,0,0-.37,1A1.59,1.59,0,0,1,81.38,18a1.6,1.6,0,0,1-.89.39,1,1,0,0,1-1-1.2,1.55,1.55,0,0,1,.52-.84,1.5,1.5,0,0,1,.67-.35l.21.51a2.36,2.36,0,0,0-.54.3,1,1,0,0,0-.38.51.44.44,0,0,0,.11.39.42.42,0,0,0,.45.16,1.39,1.39,0,0,0,.51-.3,1.33,1.33,0,0,0,.45-1A1.41,1.41,0,0,1,82,15.47Zm-5.18-.6a6.64,6.64,0,0,0,1.46-1.11,1.76,1.76,0,0,0,.46-.7A.41.41,0,0,0,79,13a.43.43,0,0,0-.45-.06,1.76,1.76,0,0,0-.67.49,6.21,6.21,0,0,0-1,1.53l-.46-.43a8.7,8.7,0,0,1,1-1.45,2.2,2.2,0,0,1,1-.65.94.94,0,0,1,1.15,1.1,2.18,2.18,0,0,1-.61,1,9,9,0,0,1-1.39,1.11Zm-4-4.27.3.18a1.81,1.81,0,0,1,.28-1.57,1.31,1.31,0,0,1,.8-.53,1,1,0,0,1,.78.19.71.71,0,0,1,.29.62.65.65,0,0,1,.64.11.68.68,0,0,1,.28.61.53.53,0,0,1,.35,0,.92.92,0,0,1,.32.17,1,1,0,0,1,.39.69,1.28,1.28,0,0,1-.34.92,1.94,1.94,0,0,1-.91.57l-.56-.44a1.73,1.73,0,0,0,1-.48.92.92,0,0,0,.27-.56.44.44,0,0,0-.18-.32q-.28-.23-.63.22l-.35.44-.41-.32.35-.44q.34-.44.09-.64t-.6.23l-.35.44-.41-.32.35-.44q.35-.44.07-.66a.44.44,0,0,0-.34-.07.85.85,0,0,0-.49.37,1.64,1.64,0,0,0-.08,1.62,5.51,5.51,0,0,1,1.09,1.12.77.77,0,0,1,0,.84l-.54-.43a.5.5,0,0,0-.15-.51,4.88,4.88,0,0,0-.58-.53,4.18,4.18,0,0,0-1.09-.67Zm-.55-1a1.38,1.38,0,0,1-.73.71,1.06,1.06,0,0,1-.84-.14,1.16,1.16,0,0,1-.54-.61,1,1,0,0,1,.12-.83A1.74,1.74,0,0,1,71,8.76l.38.43a1.07,1.07,0,0,0-.34.37.39.39,0,0,0,0,.34.56.56,0,0,0,.27.29.54.54,0,0,0,.41.1c.1,0,.24-.2.42-.51l.76-1.33c.05-.09,0-.16-.1-.23s-.21-.07-.25,0l-.37.65-.44-.25L72.06,8c0-.07,0-.13,0-.16L71.8,7.7a.9.9,0,0,1-.33-.36l.4-.31a.62.62,0,0,0,.19.26l.2.12c.12.06.18.2.19.44a.59.59,0,0,1,.58,0,.74.74,0,0,1,.33.4.56.56,0,0,1,0,.5Zm-3-1.45A1.11,1.11,0,0,0,69.7,8a.33.33,0,0,0-.18-.27l-.21-.11.22-.43.15.08a.36.36,0,0,0,.26.06c.06,0,.13-.1.21-.25A1.44,1.44,0,0,0,70,6.22l.61.31a1,1,0,0,1,0,.82.84.84,0,0,1-.53.45,1.23,1.23,0,0,1-.09,1,1,1,0,0,1-.64.57,1.13,1.13,0,0,1-.83-.11A1.12,1.12,0,0,1,68,8.73a1.05,1.05,0,0,1,.11-.89,1.73,1.73,0,0,1,.41-.53l.33.41a1.27,1.27,0,0,0-.24.35.69.69,0,0,0-.11.52.49.49,0,0,0,.26.27.48.48,0,0,0,.44.05.68.68,0,0,0,.29-.32m-3.1-.28a6.67,6.67,0,0,0,.93-1.58,1.75,1.75,0,0,0,.16-.82.41.41,0,0,0-.25-.38.43.43,0,0,0-.44.11,1.76,1.76,0,0,0-.44.71A6.25,6.25,0,0,0,66,8.16l-.59-.23a8.79,8.79,0,0,1,.42-1.73,2.19,2.19,0,0,1,.69-1A.94.94,0,0,1,68,5.8,2.19,2.19,0,0,1,67.87,7,9,9,0,0,1,67,8.55ZM63.38,5.53c.08-.27,0-.43-.19-.49s-.58.07-.7.51a1.91,1.91,0,0,0,.31,1.55L62,6.88a2.3,2.3,0,0,1-.09-1.48,2.2,2.2,0,0,1,.38-.75,1.7,1.7,0,0,1,.62-.49,2.39,2.39,0,0,1,1.71-.06l-.14.47c-.78-.17-1.29-.17-1.51,0h.36A.7.7,0,0,1,63.8,5a.78.78,0,0,1,.69-.13,1,1,0,0,1,.65.5,1.21,1.21,0,0,1,0,.94,2.28,2.28,0,0,1-.86,1.19l-.73-.21a1.94,1.94,0,0,0,1-1.14.81.81,0,0,0,0-.55.47.47,0,0,0-.31-.27q-.33-.09-.44.31l-.22.76-.52-.15Zm-2.08.08a1.06,1.06,0,0,1-.47.79,1.22,1.22,0,0,1-.82.12,1.27,1.27,0,0,1-.65-.35.9.9,0,0,1-.2-.86,1.21,1.21,0,0,1,.26-.53l.44.32a1.13,1.13,0,0,0-.16.41.4.4,0,0,0,.08.34.51.51,0,0,0,.32.17A.58.58,0,0,0,60.52,6a.71.71,0,0,0,.22-.47L61,4.07a.31.31,0,0,0-.08-.27.58.58,0,0,0-.34-.16.47.47,0,0,0-.38,0,.38.38,0,0,0-.13.22.54.54,0,0,0,0,.33l-.51.13a.92.92,0,0,1-.08-.55.76.76,0,0,1,.38-.53,1,1,0,0,1,.75-.13,1.11,1.11,0,0,1,.73.38.81.81,0,0,1,.17.63Zm-3.8.05a.51.51,0,0,0,.4-.12.6.6,0,0,0,.18-.42A.75.75,0,0,0,58,4.57a.51.51,0,0,0-.37-.19.46.46,0,0,0-.37.13A.81.81,0,0,0,57,5a.63.63,0,0,0,.1.44.47.47,0,0,0,.35.18m1.13-.51a1.07,1.07,0,0,1-1.17,1,1,1,0,0,1-.74-.38A1.09,1.09,0,0,1,56.48,5a1.25,1.25,0,0,1,.34-.83,1,1,0,0,1,.81-.26.86.86,0,0,1,.51.22l0-.48a.3.3,0,0,0-.1-.28.58.58,0,0,0-.35-.13.57.57,0,0,0-.36.06.4.4,0,0,0-.13.29l-.55,0A.75.75,0,0,1,57,2.9a1.21,1.21,0,0,1,.76-.15,1.13,1.13,0,0,1,.71.3.74.74,0,0,1,.25.62ZM55.07,2.58a1.29,1.29,0,0,0,.46.92A1.58,1.58,0,0,1,56,4.71a1.61,1.61,0,0,1-.31.92.93.93,0,0,1-.82.38.92.92,0,0,1-.77-.42,1.57,1.57,0,0,1-.27-1,1.5,1.5,0,0,1,.2-.73l.52.19a2.38,2.38,0,0,0-.14.61,1,1,0,0,0,.12.63.45.45,0,0,0,.36.18.41.41,0,0,0,.42-.23,1.41,1.41,0,0,0,.12-.58,1.33,1.33,0,0,0-.45-1,1.42,1.42,0,0,1-.44-1.11Zm-3.53.73a1.18,1.18,0,0,0,.22.79,1.16,1.16,0,0,1,.22.78,1.1,1.1,0,0,1-.32.79,1.07,1.07,0,0,1-1.84-.83V2.57h.56V4.83a.76.76,0,0,0,.15.5.42.42,0,0,0,.36.17.5.5,0,0,0,.37-.15.68.68,0,0,0,.15-.47,1,1,0,0,0-.21-.66,1.41,1.41,0,0,1-.22-.9ZM48.48,5.95a6.67,6.67,0,0,0,.29-1.81,1.76,1.76,0,0,0-.15-.82A.41.41,0,0,0,48.26,3a.43.43,0,0,0-.37.27,1.77,1.77,0,0,0-.15.82,6.24,6.24,0,0,0,.31,1.81h-.63a8.78,8.78,0,0,1-.24-1.76A2.2,2.2,0,0,1,47.46,3a.94.94,0,0,1,1.59,0,2.18,2.18,0,0,1,.28,1.18,8.92,8.92,0,0,1-.24,1.76Z"/><path class="cls-5" d="M87.69,73.42h3.09v.52H87.69Zm.63,1.23a3.44,3.44,0,0,0-.2.48,1.43,1.43,0,0,0-.07.4.8.8,0,0,0,.1.47.36.36,0,0,0,.31.17.32.32,0,0,0,.26-.09h0a1,1,0,0,0,.16-.42l.06-.24a1.36,1.36,0,0,1,.35-.68.81.81,0,0,1,.62-.22.84.84,0,0,1,.69.32,1.44,1.44,0,0,1,.21.9,2.43,2.43,0,0,1-.07.47,3.67,3.67,0,0,1-.17.53l-.56,0a2.1,2.1,0,0,0,.35-1,.84.84,0,0,0-.1-.49.4.4,0,0,0-.34-.18.44.44,0,0,0-.17,0,.4.4,0,0,0-.13.08.62.62,0,0,0-.1.16,1.29,1.29,0,0,0-.08.24l-.05.24a1.35,1.35,0,0,1-.31.67.76.76,0,0,1-.58.2.82.82,0,0,1-.66-.32,1.23,1.23,0,0,1-.22-.81,2.9,2.9,0,0,1,.2-.92Zm-.81,3,0-.52,3.08.24,0,.52Zm-.27,2.18.07-.52,2.61.33.18-1.44.45.06-.25,2ZM87,80.89l.09-.51,3,.55-.09.51Zm-.62,2.67.25-1.06a1.61,1.61,0,0,1,.15-.41.89.89,0,0,1,.22-.28.65.65,0,0,1,.29-.14.81.81,0,0,1,.35,0,.85.85,0,0,1,.38.17.49.49,0,0,1,.16.32.76.76,0,0,1,.37-.28.88.88,0,0,1,.49,0,.8.8,0,0,1,.58.43,1.27,1.27,0,0,1,0,.84l-.26,1.1Zm.56-.4.76.18.12-.52a.66.66,0,0,0,0-.4.34.34,0,0,0-.26-.19c-.25-.06-.42.08-.5.42Zm1.19.28.94.22.13-.57a.67.67,0,0,0,0-.45.46.46,0,0,0-.33-.22.45.45,0,0,0-.39.05.67.67,0,0,0-.21.4Zm-2.63,2.69.84-2.49.43.15-.34,1,2.49.84-.17.5-2.49-.85-.34,1ZM84,89.59l.27-.58,2.6-.16-2.1-1,.21-.46,2.82,1.28-.26.58-2.6.16,2.1,1-.21.46Zm-.49.83.26-.45,2.67,1.55-.26.45ZM81.24,94l.31-.49,1.42,0-.28-.65-.28-.65.31-.48.78,1.81,1.23.79-.28.44L83.21,94Zm-1.83,2.26.43-.55,1.95.61-.53-.87-.53-.87.43-.55L83.6,96l-.31.4-1.84-1.44.49.81.49.8-.3.38-1.8-.57,1.84,1.44-.31.4ZM77.76,98l1.38-1.44.33.32-1,1.07.55.53,1-1,.33.32-1,1,.69.66,1-1.09.33.32L80,100.13Zm-2.2,2,.67-.58a2.61,2.61,0,0,1,.64-.42,1.54,1.54,0,0,1,.6-.15A1.27,1.27,0,0,1,78,99a2,2,0,0,1,.53.44,2,2,0,0,1,.37.59,1.18,1.18,0,0,1,.07.57,1.92,1.92,0,0,1-.74,1.14l-.67.58Zm.69,0,1.43,1.66.32-.28a1.19,1.19,0,0,0,.48-.76,1.43,1.43,0,0,0-1.09-1.26,1.19,1.19,0,0,0-.82.36ZM74,101.23l.42-.33,2.84,1.69-.43.34-.69-.43-1,.78.06.19.07.2.07.2.06.18-.43.34Zm.6.33.11.32.1.31.1.31.11.33.73-.58Zm-1,1a1.87,1.87,0,0,0-.6,0,1.16,1.16,0,0,0-.47.17.92.92,0,0,0-.46.65,1.29,1.29,0,0,0,.25.86,1.76,1.76,0,0,0,.32.38,1,1,0,0,0,.36.2.79.79,0,0,0,.38,0,1.1,1.1,0,0,0,.4-.17,1.44,1.44,0,0,0,.58-.91l.32.5a1.75,1.75,0,0,1-.68.81,1.45,1.45,0,0,1-1.16.24,1.89,1.89,0,0,1-1.27-2h0a1.43,1.43,0,0,1,.69-1,1.73,1.73,0,0,1,1-.28Zm-4,1.42.48-.25L72.48,106l-.49.25-.59-.55-1.12.57,0,.2,0,.21,0,.2,0,.2-.49.25Zm.52.44,0,.33,0,.32,0,.32,0,.34.82-.42ZM65,106l.6-.24,2,1.7-.85-2.14.47-.19L68.3,108l-.59.24-2-1.69.85,2.14-.48.19Zm-1.74.51.52-.15,2,2.65-.53.15-.47-.66-1.21.34c0,.07,0,.13,0,.2v.61l-.53.15Zm.43.53,0,.33,0,.32c0,.11,0,.21,0,.32l0,.34.89-.25Zm-1.44.61a1.85,1.85,0,0,0-.55-.22,1.17,1.17,0,0,0-.5,0,.92.92,0,0,0-.65.45,1.28,1.28,0,0,0-.05.89,1.77,1.77,0,0,0,.17.47,1,1,0,0,0,.27.31.82.82,0,0,0,.35.15,1.13,1.13,0,0,0,.43,0,1.45,1.45,0,0,0,.85-.67l.13.57a1.75,1.75,0,0,1-.91.54,1.45,1.45,0,0,1-1.17-.17,1.9,1.9,0,0,1-.53-2.28h0a1.43,1.43,0,0,1,1-.67,1.74,1.74,0,0,1,1,.08Zm-3.43-.21.52-.07.39,3.07-.52.07Zm-2.21.68.07.93.44,0a.57.57,0,0,0,.38-.15.53.53,0,0,0-.05-.7.59.59,0,0,0-.4-.09Zm1.55.35a.89.89,0,0,1-.07.46.7.7,0,0,1-.3.31.92.92,0,0,1,.22.19,2.44,2.44,0,0,1,.23.32l.13.21.14.22.13.22.12.21-.56,0-.46-.76a1,1,0,0,0-.29-.35.57.57,0,0,0-.35-.06l-.38,0,.1,1.25-.52,0L56,107.71l1-.07a1.22,1.22,0,0,1,.82.17.86.86,0,0,1,.32.67m-4.62-.69,2,0v.46l-1.48,0,0,.76,1.42,0v.46l-1.42,0,0,1,1.51,0v.46l-2,.05Zm-3.58,0h.7l.72,1.91.36-1,.36-1h.7v3.09h-.51v-2.34l-.33.89-.33.88H51.1l-.67-1.77v2.34h-.51Zm-2.12,0h.54l1.18,3.09H49l-.27-.76H47.45l-.07.19-.07.2-.07.19-.07.19h-.55Zm.27.63-.12.32-.11.3-.11.31-.12.32h.92Zm-3.67-.63h.52v3.09h-.52Zm-2.35,0h.52v2.63H44v.46h-2Zm-1.26,0h.52v3.09h-.52Zm-2.1,3.08-1.09-3.12h.55l.83,2.42.49-1.18.48-1.18.55,0-1.26,3.06ZM35,107.54l.52,0-.09,1.21,1.34.1.09-1.21.52,0-.24,3.08-.52,0,.11-1.41-1.34-.1-.11,1.41-.52,0Zm-.59.56a3.33,3.33,0,0,0-.44-.27,1.38,1.38,0,0,0-.38-.13.81.81,0,0,0-.47,0,.37.37,0,0,0-.21.29.32.32,0,0,0,.05.27h0a1,1,0,0,0,.39.22l.23.09a1.37,1.37,0,0,1,.62.45.81.81,0,0,1,.12.64.84.84,0,0,1-.42.64,1.44,1.44,0,0,1-.92.07,2.41,2.41,0,0,1-.45-.13A3.72,3.72,0,0,1,32,110l.1-.55a2.11,2.11,0,0,0,.93.49.84.84,0,0,0,.5,0,.4.4,0,0,0,.23-.31.45.45,0,0,0,0-.17.4.4,0,0,0-.06-.14.62.62,0,0,0-.15-.12l-.23-.12-.23-.09a1.34,1.34,0,0,1-.62-.41.76.76,0,0,1-.11-.6.82.82,0,0,1,.41-.6,1.22,1.22,0,0,1,.83-.09,2.86,2.86,0,0,1,.88.33Zm-2.84-1.22L32,107l-.7,3-.51-.12Zm-2.9-.79.62.18.54,2.55.63-2.22.49.14-.84,3-.61-.17L28.91,107l-.63,2.21-.49-.14ZM27,105.45l.5.2,0,3.31-.51-.2,0-.81-1.17-.46-.13.15-.14.16-.14.16-.13.15-.51-.2Zm0,.68-.22.25-.22.24-.22.24-.23.26.86.34ZM23.62,104l2.4,1.09-.19.42-1-.43-1.09,2.4-.48-.22,1.09-2.4-1-.44Zm-.37.5a3.29,3.29,0,0,0-.32-.41,1.41,1.41,0,0,0-.32-.26.8.8,0,0,0-.46-.14.36.36,0,0,0-.3.19.32.32,0,0,0,0,.27h0a1,1,0,0,0,.29.34l.18.17a1.37,1.37,0,0,1,.43.63.82.82,0,0,1-.1.65.84.84,0,0,1-.61.45,1.44,1.44,0,0,1-.89-.25,2.35,2.35,0,0,1-.38-.28,3.56,3.56,0,0,1-.38-.4l.28-.48a2.12,2.12,0,0,0,.71.78.84.84,0,0,0,.48.14.4.4,0,0,0,.32-.21.47.47,0,0,0,.06-.16.39.39,0,0,0,0-.15.61.61,0,0,0-.09-.17,1.32,1.32,0,0,0-.18-.19l-.19-.16a1.34,1.34,0,0,1-.44-.6.76.76,0,0,1,.1-.61.82.82,0,0,1,.59-.43,1.23,1.23,0,0,1,.82.2,2.89,2.89,0,0,1,.72.61Zm-3-2.57.45.29L20,105.44l-.46-.29.18-.79-1.06-.68-.16.12-.16.13-.16.13-.15.12-.46-.3Zm-.11.67-.27.2-.26.2-.26.2-.27.21.78.5Zm-2.86-2.95.7.55a2.64,2.64,0,0,1,.54.55,1.55,1.55,0,0,1,.26.56,1.26,1.26,0,0,1-.05.57,2,2,0,0,1-.33.6,2,2,0,0,1-.51.48,1.18,1.18,0,0,1-.55.18,1.92,1.92,0,0,1-1.26-.51l-.7-.55Zm.13.68L16.06,102l.33.26a1.19,1.19,0,0,0,.84.32,1.43,1.43,0,0,0,1-1.31,1.19,1.19,0,0,0-.51-.74Zm-1.64-2.1.38.36-1.82,1.9,1,1-.32.33-1.42-1.36ZM14.41,96.8l.37.39-1.43,3-.38-.4.36-.72-.86-.91-.18.08-.19.08-.19.08-.18.08-.38-.4Zm-.27.63-.31.13-.3.13-.3.13-.32.13.64.67Zm-2-3.38L13.65,96l-.3.24-2.89,0,1.15,1.46-.36.28-1.58-2,.3-.24,2.89,0-1.1-1.39ZM10,90.76l.31.49-.56,1.3h1.41l.31.48-2,0-1.22.79L8,93.37l1.22-.79Zm-3.54-.17,2.21-2.46.25.49L7.16,90.51l1.27-.14,1.27-.14.25.49-3.29.36Zm1.95-3.13.21.48L5.76,89.21l-.21-.47ZM7.26,84.7l.19.49-1.74.68a1,1,0,0,0-.55.38.63.63,0,0,0,0,.55.63.63,0,0,0,.36.41,1.05,1.05,0,0,0,.66-.09l1.74-.68.19.49-1.78.7a1.28,1.28,0,0,1-1,.06A1.19,1.19,0,0,1,4.77,87a1.18,1.18,0,0,1,0-.95,1.27,1.27,0,0,1,.75-.62Zm-2-.37-.18-.63.43-.12L5.8,84.7l-1.31.37a1.93,1.93,0,0,1-.41-.46A2.05,2.05,0,0,1,3.82,84a1.5,1.5,0,0,1,.1-1.21,1.63,1.63,0,0,1,1-.71,1.62,1.62,0,0,1,1.24.07,1.49,1.49,0,0,1,.72,1,2.13,2.13,0,0,1,.08.58,2,2,0,0,1-.08.56l-.57.16a1.62,1.62,0,0,0,.14-1.14A1,1,0,0,0,6,82.66a1.24,1.24,0,0,0-.9,0,1.25,1.25,0,0,0-.76.48,1,1,0,0,0-.07.82,1.67,1.67,0,0,0,.12.32,1.06,1.06,0,0,0,.17.24Zm.65-6,.25,2-.45.06-.18-1.47-.75.1.18,1.4-.45.06-.18-1.41-1,.12.19,1.5-.45.06-.25-2Zm-.27-3,0,.52-1.21.09.1,1.34,1.21-.09,0,.52-3.08.24,0-.52,1.41-.11L4,76l-1.41.11,0-.52Zm0-2.77v2.63H5.16V74.14H2.53v-.52H5.16V72.56Z"/><polygon class="cls-4" points="4.12 65.46 4.6 66.64 5.86 66.46 5.08 67.46 5.86 68.46 4.6 68.29 4.12 69.46 3.65 68.29 2.39 68.46 3.17 67.46 2.39 66.46 3.65 66.64 4.12 65.46"/><polygon class="cls-4" points="89.19 65.46 89.66 66.64 90.92 66.46 90.14 67.46 90.92 68.46 89.66 68.29 89.19 69.46 88.71 68.29 87.45 68.46 88.23 67.46 87.45 66.46 88.71 66.64 89.19 65.46"/><path class="cls-6" d="M72.11,27.52a1.28,1.28,0,0,1-.32-.9,1,1,0,0,1,.38-.76.88.88,0,0,1,.58-.22,1.4,1.4,0,0,1,.56.13V26a1.79,1.79,0,0,0-.69.4,2.15,2.15,0,0,0-.43.48.41.41,0,0,0,0,.53.48.48,0,0,0,.52.18,2,2,0,0,0,.74-.42l1.28-1c.24-.19.36-.36.37-.49a.53.53,0,0,0-.13-.39.67.67,0,0,0-.41-.26.52.52,0,0,0-.44.13s0,.1,0,.19a.19.19,0,0,1-.06.24.2.2,0,0,1-.18.05.33.33,0,0,1-.17-.13.43.43,0,0,1-.13-.35.47.47,0,0,1,.16-.25.79.79,0,0,1,.69-.18,1.26,1.26,0,0,1,.69.48,1.48,1.48,0,0,1,.35.82.8.8,0,0,1-.33.72l-1.22,1a1.21,1.21,0,0,1-1.83-.18m-2-2.28a2.74,2.74,0,0,0,1.72-1,6,6,0,0,0,1-1.14.43.43,0,0,0-.15-.5.52.52,0,0,0-.35-.15,1.18,1.18,0,0,0-.41,0l0-.24a1,1,0,0,1,.48,0,.92.92,0,0,1,.36.22,1.28,1.28,0,0,1,.44.91q0,.48-.86,1.36a2.14,2.14,0,0,1-2,.76Zm1.43-3.72a.44.44,0,0,0-.49-.14,5.86,5.86,0,0,0-1.13,1,6,6,0,0,0-1,1.15.43.43,0,0,0,.15.49.47.47,0,0,0,.51.14,5.2,5.2,0,0,0,1.14-1,5.1,5.1,0,0,0,1-1.17.47.47,0,0,0-.17-.49m.11-.11a1.18,1.18,0,0,1,.41.92,2.5,2.5,0,0,1-.84,1.33,2.47,2.47,0,0,1-1.32.89,1.21,1.21,0,0,1-.92-.4,1.24,1.24,0,0,1-.44-.93,2.5,2.5,0,0,1,.85-1.34A2.45,2.45,0,0,1,70.72,21a1.21,1.21,0,0,1,.94.4m-5.13.9a1.28,1.28,0,0,1-.58-.76,1,1,0,0,1,.12-.84.88.88,0,0,1,.48-.4,1.41,1.41,0,0,1,.57-.05l.1.24a1.77,1.77,0,0,0-.53.6,2.13,2.13,0,0,0-.26.59.41.41,0,0,0,.19.49.48.48,0,0,0,.55,0,2,2,0,0,0,.57-.63l.89-1.39a.83.83,0,0,0,.19-.58.54.54,0,0,0-.25-.33.69.69,0,0,0-.47-.12.52.52,0,0,0-.38.26s0,.11.05.18a.19.19,0,0,1,0,.24.21.21,0,0,1-.15.11.34.34,0,0,1-.21-.07c-.15-.09-.22-.19-.23-.29a.46.46,0,0,1,.07-.29.79.79,0,0,1,.6-.39,1.26,1.26,0,0,1,.8.24,1.48,1.48,0,0,1,.59.67.8.8,0,0,1-.08.79l-.84,1.32a1.21,1.21,0,0,1-1.79.4m-.17-3.82a.55.55,0,0,1-.37.25,1.4,1.4,0,0,1-.62,0,1.45,1.45,0,0,1,.43.62,1.32,1.32,0,0,1-.21,1,1.14,1.14,0,0,1-.69.57,1.27,1.27,0,0,1-1-.13,1.37,1.37,0,0,1-.68-.72,1,1,0,0,1,0-.85,1.15,1.15,0,0,1,.52-.58,1.21,1.21,0,0,1,.48-.1h0l.16.26a2.41,2.41,0,0,0-.5.75,1.85,1.85,0,0,0-.19.61.44.44,0,0,0,.27.49.44.44,0,0,0,.53-.05,1.91,1.91,0,0,0,.44-.59,3.42,3.42,0,0,0,.37-.89.34.34,0,0,0-.21-.37.46.46,0,0,0-.25,0c-.06,0-.08-.07-.06-.16s.08-.11.19-.07a.47.47,0,0,0,.46,0,.79.79,0,0,0,.29-.31,2.18,2.18,0,0,0,.13-.31c0-.13,0-.21,0-.24a.13.13,0,0,0-.18.05c-.06.07-.14.07-.25,0s-.1-.14,0-.28.19-.09.41,0a1.21,1.21,0,0,1,.56.52.57.57,0,0,1,0,.53m-3.81-2.54a1.24,1.24,0,0,1,.74.74A2.44,2.44,0,0,1,63,18.27a2.91,2.91,0,0,1-1.33,1.45l-.34-.14a5.55,5.55,0,0,0,1-1.59,5.11,5.11,0,0,0,.48-1.49.47.47,0,0,0-.33-.41.42.42,0,0,0-.5.06,6.64,6.64,0,0,0-.69,1.4,9.51,9.51,0,0,0-.45,1.25c.07,0,.13,0,.19.07a.24.24,0,0,1,0,.27.3.3,0,0,1-.16.16.3.3,0,0,1-.24,0,.42.42,0,0,1-.23-.23,1.31,1.31,0,0,1-.09-.43,2.67,2.67,0,0,1,0-.63,3.58,3.58,0,0,1,.23-.74A2.58,2.58,0,0,1,61.53,16a1.16,1.16,0,0,1,1,0m-3-.3c.17.06.24.14.22.23s-.11.14-.25.11a.17.17,0,0,0-.22.1c0,.07.09.24.33.5a1,1,0,0,1,.17,1,1.36,1.36,0,0,1-.55.82,1.17,1.17,0,0,1-1,.06,1.26,1.26,0,0,1-.83-.63,1.5,1.5,0,0,1,0-1.08L58,14.71q0-.13-.14-.28a.52.52,0,0,1,.22,0,1.4,1.4,0,0,1,.41.21c.13.1.16.25.09.47L58,17a2.33,2.33,0,0,0-.16,1,.49.49,0,0,0,.36.41.41.41,0,0,0,.51-.16,3.42,3.42,0,0,0,.33-.76,1.37,1.37,0,0,0,0-1,.9.9,0,0,1-.13-.56.3.3,0,0,1,.24-.23.75.75,0,0,1,.33,0m-4.37.6a1.48,1.48,0,0,1-.53,1,1.26,1.26,0,0,1-1,.23,1.25,1.25,0,0,1-1-1.46,1.1,1.1,0,0,1,.69-.91l.25.22a2.41,2.41,0,0,0-.21.74,2.65,2.65,0,0,0,0,.88.43.43,0,0,0,.36.39.46.46,0,0,0,.52-.24,3,3,0,0,0,.27-.94,1.45,1.45,0,0,0-.35-1.35,1.07,1.07,0,0,1-.43-.87q0-.27.38-.22t.22.32q-.3.47.37.94a1.23,1.23,0,0,1,.54,1.31M51,13.41a.42.42,0,0,0-.47.22,2.69,2.69,0,0,0-.19.84,3.79,3.79,0,0,0,0,1.1.51.51,0,0,0,.89.09,3.8,3.8,0,0,0,.21-1.08,2.67,2.67,0,0,0,0-.86.42.42,0,0,0-.42-.31m0-.16a1.14,1.14,0,0,1,.9.51,1.37,1.37,0,0,1,.24.9,1.7,1.7,0,0,1-.44,1.08,1.31,1.31,0,0,1-1.89-.2,1.76,1.76,0,0,1-.2-1.14,1.38,1.38,0,0,1,.42-.83,1.14,1.14,0,0,1,1-.31m-1,.36a.82.82,0,0,0-.54-.33.39.39,0,0,0-.45.23,2.68,2.68,0,0,0-.17.77A2.41,2.41,0,0,0,49,15.37a1.27,1.27,0,0,0,.61.71q.32.17.82.37c.33.13.49.26.48.39s-.14.23-.38.2a.36.36,0,0,1-.36-.27c0-.15-.08-.27-.29-.38a1.76,1.76,0,0,0-.59-.19.28.28,0,0,0-.35.22.26.26,0,0,1-.32.22c-.18,0-.26-.13-.25-.26a.32.32,0,0,1,.17-.26A1.56,1.56,0,0,1,49.1,16a2.22,2.22,0,0,1-.85-.92,2.18,2.18,0,0,1-.1-1,1.16,1.16,0,0,1,.37-.73,1.24,1.24,0,0,1,1-.24,1,1,0,0,1,.62.35Zm-4.13,1.82a1.49,1.49,0,0,1-.33,1.06,1.26,1.26,0,0,1-1,.42,1.25,1.25,0,0,1-1.31-1.23,1.09,1.09,0,0,1,.51-1l.29.16a2.38,2.38,0,0,0-.06.77,2.64,2.64,0,0,0,.14.87.43.43,0,0,0,.43.32.46.46,0,0,0,.47-.34,3.07,3.07,0,0,0,.09-1,1.45,1.45,0,0,0-.6-1.26c-.39-.25-.58-.51-.59-.77s.1-.28.33-.29.32.08.28.27c-.14.35,0,.63.54.85a1.23,1.23,0,0,1,.78,1.18m-4.61-.88a.44.44,0,0,0-.43.3,2.58,2.58,0,0,0,0,.91,3.32,3.32,0,0,0,.21,1,.54.54,0,0,0,.91-.09,3.17,3.17,0,0,0,0-1.07,2.53,2.53,0,0,0-.2-.89.45.45,0,0,0-.48-.21m0-.15a1.21,1.21,0,0,1,1,.29,1.35,1.35,0,0,1,.43.88,1.57,1.57,0,0,1-.23,1.11,1.22,1.22,0,0,1-.92.48,1.2,1.2,0,0,1-1-.29,1.61,1.61,0,0,1-.43-1,1.35,1.35,0,0,1,.25-.94,1.2,1.2,0,0,1,.92-.48m0,0,0-.2c0-.15-.14-.22-.42-.23s-.43-.12-.46-.35.1-.25.34-.28.28,0,.3.12a.19.19,0,0,1,0,.16.12.12,0,0,0,0,.13.31.31,0,0,0,.27.11.23.23,0,0,1,.24.2,1.09,1.09,0,0,1,0,.32Zm-2.76,3.22a1.28,1.28,0,0,1-.94-.16,1,1,0,0,1-.49-.7.87.87,0,0,1,.08-.61,1.43,1.43,0,0,1,.38-.43l.24.12a1.79,1.79,0,0,0,0,.8,2.16,2.16,0,0,0,.21.61.41.41,0,0,0,.48.23.48.48,0,0,0,.41-.37,2,2,0,0,0,0-.85l-.29-1.62a.83.83,0,0,0-.25-.56.54.54,0,0,0-.4-.07.68.68,0,0,0-.43.23.52.52,0,0,0-.1.44c0,.05.06.09.16.1a.19.19,0,0,1,.18.17.21.21,0,0,1,0,.18.33.33,0,0,1-.2.09.43.43,0,0,1-.37-.05.46.46,0,0,1-.14-.26.79.79,0,0,1,.17-.7,1.26,1.26,0,0,1,.75-.37,1.48,1.48,0,0,1,.88.09.8.8,0,0,1,.48.63l.27,1.54a1.21,1.21,0,0,1-1,1.51M33.41,15A.64.64,0,0,1,34,15a.66.66,0,0,1,.47-.36,1.13,1.13,0,0,1,.89,0,1.31,1.31,0,0,1,.6.82A1.73,1.73,0,0,1,35.68,17l-.45.15a2.26,2.26,0,0,0,0-1.41,3.36,3.36,0,0,0-.36-.86.33.33,0,0,0-.39-.08.31.31,0,0,0-.22.2,1,1,0,0,0,.07.53,1.35,1.35,0,0,0,.2.45.48.48,0,0,1,.13.18.26.26,0,0,1-.17.35.25.25,0,0,1-.35-.18.42.42,0,0,1,0-.2,1.56,1.56,0,0,0-.12-.49,1.27,1.27,0,0,0-.23-.48.31.31,0,0,0-.33,0,.36.36,0,0,0-.26.21,1,1,0,0,0,.07.53,1.3,1.3,0,0,0,.2.44.47.47,0,0,1,.13.18.26.26,0,0,1-.18.35.25.25,0,0,1-.35-.18.39.39,0,0,1,0-.2,1.58,1.58,0,0,0-.12-.49,1.26,1.26,0,0,0-.23-.48.31.31,0,0,0-.32,0,.3.3,0,0,0-.22.31,2.68,2.68,0,0,0,.17.77,2.64,2.64,0,0,0,.49.89,1.53,1.53,0,0,0,1.15.41h.95q.54,0,.6.18c.05.15,0,.26-.26.34s-.42.06-.49-.09-.18-.21-.39-.22a1.8,1.8,0,0,0-.58.07.27.27,0,0,0-.21.33.25.25,0,0,1-.19.32c-.17,0-.27,0-.32-.14a.31.31,0,0,1,0-.3,1.5,1.5,0,0,1,.46-.32,2.39,2.39,0,0,1-1.4-.47,1.93,1.93,0,0,1-.55-.81,1.18,1.18,0,0,1,0-.91,1.07,1.07,0,0,1,.66-.52.68.68,0,0,1,.6,0,.75.75,0,0,1,.51-.37m-2.57,5a2.74,2.74,0,0,0-.4-1.95,6,6,0,0,0-.78-1.28.43.43,0,0,0-.52,0,.53.53,0,0,0-.25.29,1.16,1.16,0,0,0-.09.4l-.22-.11a1,1,0,0,1,.16-.45.92.92,0,0,1,.32-.27,1.27,1.27,0,0,1,1-.14c.3.1.64.51,1,1.24a2.14,2.14,0,0,1,.11,2.1ZM27.76,17.5a.44.44,0,0,0-.29.42,5.94,5.94,0,0,0,.61,1.39,5.94,5.94,0,0,0,.79,1.29.43.43,0,0,0,.51,0,.47.47,0,0,0,.3-.44,5.22,5.22,0,0,0-.59-1.39,5.14,5.14,0,0,0-.81-1.29.47.47,0,0,0-.52,0m-.07-.14a1.18,1.18,0,0,1,1-.1,2.5,2.5,0,0,1,1,1.21A2.48,2.48,0,0,1,30.12,20a1.22,1.22,0,0,1-.67.75,1.24,1.24,0,0,1-1,.13q-.45-.17-1-1.23A2.45,2.45,0,0,1,27,18.13a1.21,1.21,0,0,1,.67-.77m-.57,3a1.48,1.48,0,0,1,.26,1.08,1.26,1.26,0,0,1-.6.85A1.25,1.25,0,0,1,25,21.94a1.09,1.09,0,0,1-.09-1.14h.33a2.39,2.39,0,0,0,.34.69,2.67,2.67,0,0,0,.57.67.43.43,0,0,0,.53.05.46.46,0,0,0,.23-.53,3,3,0,0,0-.43-.88A1.45,1.45,0,0,0,25.33,20a1.06,1.06,0,0,1-.9-.36q-.15-.23.13-.42t.38.09q.09.55.9.45a1.23,1.23,0,0,1,1.27.61M24.25,24a.42.42,0,0,0,.19-.48,3.56,3.56,0,0,0-.58-.89,2.84,2.84,0,0,0-.63-.64.42.42,0,0,0-.51.07,1.19,1.19,0,0,0-.33.62l.69.87a2.38,2.38,0,0,0,.58.56.5.5,0,0,0,.59-.11m-2.73-1.31a.88.88,0,0,1-.24-.7,1.1,1.1,0,0,1,.45-.63,1,1,0,0,1,.35-.19.91.91,0,0,0,.33-.16.44.44,0,0,0,.11-.4l.38-.12a.66.66,0,0,1,0,.43.9.9,0,0,1-.3.39.46.46,0,0,1-.33.05.61.61,0,0,0-.43.13.31.31,0,0,0-.09.21.48.48,0,0,0,.13.31l.38.47a1.48,1.48,0,0,1,.39-.53,1.15,1.15,0,0,1,1-.28,1.37,1.37,0,0,1,.82.5,1.64,1.64,0,0,1,.42,1,1.17,1.17,0,0,1-.51.9,1.35,1.35,0,0,1-1,.35,1.21,1.21,0,0,1-.82-.5Zm.33,1.72a1.48,1.48,0,0,1,.59.94,1.26,1.26,0,0,1-.31,1,1.25,1.25,0,0,1-1.79.18,1.09,1.09,0,0,1-.45-1.05l.31-.11a2.36,2.36,0,0,0,.54.55,2.62,2.62,0,0,0,.75.46.43.43,0,0,0,.52-.12.47.47,0,0,0,0-.58,3.05,3.05,0,0,0-.68-.7A1.45,1.45,0,0,0,20,24.65a1.06,1.06,0,0,1-1-.06c-.14-.11-.15-.26,0-.43s.27-.19.39,0q.26.5,1,.14a1.23,1.23,0,0,1,1.4.18M20.2,28.82a.47.47,0,0,0,0-.62,3.34,3.34,0,0,0-.66-.53,1.62,1.62,0,0,0-.76-.3.54.54,0,0,0-.57.21.51.51,0,0,0,0,.62,1.66,1.66,0,0,0,.56.5,2.9,2.9,0,0,0,.84.38.51.51,0,0,0,.6-.26M18,27.51a1.4,1.4,0,0,1,.84-.61,1.26,1.26,0,0,1,1,.14,1.26,1.26,0,0,1,.44,1.86,1.43,1.43,0,0,1-.84.66,1.37,1.37,0,0,1-1.11-.23,1.17,1.17,0,0,1-.53-.82,1.33,1.33,0,0,1,.18-1m0,0a.38.38,0,0,1-.15-.26.63.63,0,0,0-.33-.37.25.25,0,0,0-.2,0,.43.43,0,0,0-.25.22,1.1,1.1,0,0,0-.15.33.19.19,0,0,0,.07.22s.09,0,.16-.1a.17.17,0,0,1,.24-.05.24.24,0,0,1,.13.15.32.32,0,0,1-.07.23.41.41,0,0,1-.18.17c-.09,0-.21,0-.36-.06a.43.43,0,0,1-.18-.41A1.43,1.43,0,0,1,17,27a1.06,1.06,0,0,1,.45-.41.42.42,0,0,1,.41,0,.44.44,0,0,1,.23.5c0,.21,0,.33,0,.37Z"/><polygon class="cls-7" points="112.36 40.38 124.78 40.38 124.78 42.54 119.81 42.54 119.81 54.96 117.33 54.96 117.33 42.54 112.36 42.54 112.36 40.38"/><polygon class="cls-7" points="126.54 40.38 129 40.38 129 46.13 135.33 46.13 135.33 40.38 137.79 40.38 137.79 54.96 135.33 54.96 135.33 48.28 129 48.28 129 54.96 126.54 54.96 126.54 40.38"/><polygon class="cls-7" points="141.57 40.38 151 40.38 151 42.54 144.03 42.54 144.03 46.13 150.71 46.13 150.71 48.28 144.03 48.28 144.03 52.8 151.16 52.8 151.16 54.96 141.57 54.96 141.57 40.38"/><path class="cls-7" d="M170.14,49.2H167V47.07h5.54v6.44a9.11,9.11,0,0,1-2.6,1.29,9.82,9.82,0,0,1-2.93.43,7.09,7.09,0,0,1-5.35-2,7.68,7.68,0,0,1-1.92-5.55,7.64,7.64,0,0,1,1.92-5.55,7.06,7.06,0,0,1,5.35-2,9.83,9.83,0,0,1,2.71.37,9.37,9.37,0,0,1,2.44,1.09v2.78a7.69,7.69,0,0,0-5-2.13,4.64,4.64,0,0,0-3.65,1.37,5.94,5.94,0,0,0-1.22,4.07,5.94,5.94,0,0,0,1.22,4.06,4.64,4.64,0,0,0,3.65,1.37,8,8,0,0,0,1.63-.15,5.07,5.07,0,0,0,1.3-.45Z"/><path class="cls-7" d="M175.86,40.38h2.47v8.8a5,5,0,0,0,.74,3.06,3.77,3.77,0,0,0,4.86,0,5,5,0,0,0,.74-3.06v-8.8h2.47v9a6,6,0,0,1-1.43,4.35,6.78,6.78,0,0,1-8.44,0,6,6,0,0,1-1.43-4.35Z"/><rect class="cls-7" x="190.63" y="40.38" width="2.46" height="14.58"/><path class="cls-7" d="M200.31,55l-5.57-14.58h2.59l4.24,11.29L203.7,46q1.07-2.84,2.12-5.63h2.58L202.85,55Z"/><path class="cls-7" d="M208.09,40.38h2.73l3.74,5.54,1.86-2.77,1.85-2.76H221l-5.2,7.71V55H213.3V48.1Z"/><polygon class="cls-7" points="228.05 40.38 239.63 40.38 239.63 42.21 231.07 52.8 239.84 52.8 239.84 54.96 227.83 54.96 227.83 53.13 236.4 42.54 228.05 42.54 228.05 40.38"/><path class="cls-7" d="M246.26,40.38h2.54L254.36,55h-2.58l-1.28-3.59h-5.92l-.32.88-.33.92-.33.92-.31.87h-2.61Zm1.26,3L247,44.84l-.53,1.43-.54,1.44-.57,1.52h4.37Z"/><polygon class="cls-7" points="256.23 40.38 258.69 40.38 258.69 52.8 265.52 52.8 265.52 54.96 256.23 54.96 256.23 40.38"/><path class="cls-7" d="M267.4,40.38h4.18a12.41,12.41,0,0,1,3.59.47,7.31,7.31,0,0,1,2.58,1.3,5.9,5.9,0,0,1,1.48,2.28,9.17,9.17,0,0,1,.52,3.22,9.53,9.53,0,0,1-.5,3.26,5.57,5.57,0,0,1-1.51,2.27q-2,1.78-6.16,1.78H267.4Zm2.46,2.12V52.84h2a5.63,5.63,0,0,0,4-1.23,5.31,5.31,0,0,0,1.27-4,5.25,5.25,0,0,0-1.27-3.92,5.62,5.62,0,0,0-4-1.24Z"/><path class="cls-7" d="M286.48,40.38H289L294.58,55H292l-1.28-3.59H284.8l-.32.88-.33.92-.33.92-.31.87h-2.61Zm1.26,3-.55,1.49-.53,1.43-.54,1.44-.57,1.52h4.37Z"/><path class="cls-7" d="M305.42,43.42a16,16,0,0,0-2.28-.89,6.72,6.72,0,0,0-1.89-.3,3.79,3.79,0,0,0-2.18.53,1.73,1.73,0,0,0-.76,1.5,1.49,1.49,0,0,0,.46,1.19h0a4.55,4.55,0,0,0,2,.7l1.15.24a6.42,6.42,0,0,1,3.25,1.54,3.83,3.83,0,0,1,1.12,2.88,4,4,0,0,1-1.43,3.31,6.78,6.78,0,0,1-4.23,1.12A11,11,0,0,1,298.4,55a17.56,17.56,0,0,1-2.51-.73V51.63a10,10,0,0,0,4.73,1.5,4,4,0,0,0,2.3-.56,1.87,1.87,0,0,0,.8-1.63,2,2,0,0,0-.15-.8,1.8,1.8,0,0,0-.4-.61,2.92,2.92,0,0,0-.78-.45,6.2,6.2,0,0,0-1.16-.35l-1.15-.23a6.35,6.35,0,0,1-3.21-1.4,3.57,3.57,0,0,1-1-2.71,3.87,3.87,0,0,1,1.41-3.14A5.78,5.78,0,0,1,301,40.13a13.75,13.75,0,0,1,4.38.8Z"/><polygon class="cls-7" points="307.2 40.38 319.62 40.38 319.62 42.54 314.65 42.54 314.65 54.96 312.18 54.96 312.18 42.54 307.2 42.54 307.2 40.38"/><path class="cls-7" d="M325.08,40.38h2.54L333.17,55h-2.58l-1.28-3.59H323.4l-.32.88-.33.92-.33.92-.31.87h-2.61Zm1.26,3-.55,1.49-.53,1.43-.54,1.44-.57,1.52h4.37Z"/><polygon class="cls-7" points="335.06 40.38 338.08 40.38 343.83 51.24 343.83 40.38 346.24 40.38 346.24 54.96 343.23 54.96 337.46 44.1 337.46 54.96 335.06 54.96 335.06 40.38"/><rect class="cls-7" x="349.94" y="40.38" width="2.46" height="14.58"/><path class="cls-7" d="M364.87,43.42a16.14,16.14,0,0,0-2.28-.89,6.72,6.72,0,0,0-1.89-.3,3.79,3.79,0,0,0-2.18.53,1.72,1.72,0,0,0-.76,1.5,1.49,1.49,0,0,0,.46,1.19h0a4.55,4.55,0,0,0,2,.7l1.15.24a6.42,6.42,0,0,1,3.25,1.54,3.83,3.83,0,0,1,1.12,2.88,4,4,0,0,1-1.43,3.31,6.78,6.78,0,0,1-4.23,1.12,11,11,0,0,1-2.21-.24,17.52,17.52,0,0,1-2.51-.73V51.63a10,10,0,0,0,4.73,1.5,4,4,0,0,0,2.3-.56,1.87,1.87,0,0,0,.8-1.63,2,2,0,0,0-.15-.8,1.83,1.83,0,0,0-.4-.61,2.92,2.92,0,0,0-.78-.45,6.19,6.19,0,0,0-1.16-.35l-1.15-.23a6.35,6.35,0,0,1-3.21-1.4,3.56,3.56,0,0,1-1-2.71,3.87,3.87,0,0,1,1.41-3.14,5.79,5.79,0,0,1,3.79-1.13,13.76,13.76,0,0,1,4.38.8Z"/><polygon class="cls-7" points="368.62 40.38 371.08 40.38 371.08 46.13 377.41 46.13 377.41 40.38 379.87 40.38 379.87 54.96 377.41 54.96 377.41 48.28 371.08 48.28 371.08 54.96 368.62 54.96 368.62 40.38"/><path class="cls-7" d="M387.35,55l-5.57-14.58h2.59l4.24,11.29q1.06-2.82,2.14-5.66t2.12-5.63h2.58L389.89,55Z"/><rect class="cls-7" x="397.25" y="40.38" width="2.46" height="14.58"/><polygon class="cls-7" points="403.22 40.38 405.68 40.38 405.68 52.8 412.51 52.8 412.51 54.96 403.22 54.96 403.22 40.38"/><rect class="cls-7" x="414.3" y="40.38" width="2.46" height="14.58"/><path class="cls-7" d="M116.25,62.86H118l3.89,10.21h-1.81l-.9-2.51h-4.14l-.22.62-.23.64-.23.64-.21.61h-1.83Zm.88,2.08-.38,1-.37,1L116,68l-.4,1.07h3.06Z"/><path class="cls-7" d="M126.46,62.86h2.32l2.37,6.32L132.33,66l1.19-3.15h2.31V73.06h-1.69V65.35q-.53,1.44-1.1,2.93l-1.1,2.9h-1.61l-2.19-5.84v7.73h-1.69Z"/><polygon class="cls-7" points="141.72 62.86 148.32 62.86 148.32 64.37 143.44 64.37 143.44 66.88 148.11 66.88 148.11 68.39 143.44 68.39 143.44 71.56 148.43 71.56 148.43 73.06 141.72 73.06 141.72 62.86"/><path class="cls-7" d="M155.51,64.34v3.09H157a1.88,1.88,0,0,0,1.3-.39,1.74,1.74,0,0,0,0-2.31,1.92,1.92,0,0,0-1.3-.39Zm5,1.54a3,3,0,0,1-.35,1.49,2.29,2.29,0,0,1-1.05.93,3,3,0,0,1,.69.7,8,8,0,0,1,.66,1.09l.36.72.39.77.39.77.35.71h-1.86l-1.31-2.63a3.25,3.25,0,0,0-.87-1.22,1.9,1.9,0,0,0-1.13-.29h-1.24v4.15h-1.73V62.86H157a4,4,0,0,1,2.66.75,2.83,2.83,0,0,1,.88,2.27"/><rect class="cls-7" x="166.64" y="62.86" width="1.72" height="10.21"/><path class="cls-7" d="M181.78,65.67a6.07,6.07,0,0,0-1.62-1.13,3.84,3.84,0,0,0-1.62-.37,3,3,0,0,0-2.44,1,4.23,4.23,0,0,0-.84,2.84,5.67,5.67,0,0,0,.21,1.63,3.19,3.19,0,0,0,.63,1.19,2.65,2.65,0,0,0,1,.73,3.67,3.67,0,0,0,1.4.25,4.78,4.78,0,0,0,3.24-1.5v1.95a5.76,5.76,0,0,1-3.32,1,4.76,4.76,0,0,1-3.65-1.42,6.26,6.26,0,0,1,0-7.73h0a4.72,4.72,0,0,1,3.65-1.43,5.75,5.75,0,0,1,3.32,1Z"/><path class="cls-7" d="M189.6,62.86h1.78l3.89,10.21h-1.81l-.9-2.51h-4.14l-.22.62-.23.64-.23.64-.21.61H185.7Zm.88,2.08-.38,1-.37,1-.38,1-.4,1.07H192Z"/><polygon class="cls-7" points="199.79 62.86 201.91 62.86 205.93 70.46 205.93 62.86 207.61 62.86 207.61 73.06 205.51 73.06 201.47 65.46 201.47 73.06 199.79 73.06 199.79 62.86"/><path class="cls-7" d="M225,62.86h1.78l3.89,10.21h-1.81l-.89-2.51h-4.14l-.22.62-.23.64-.23.64-.21.61h-1.82Zm.88,2.08-.38,1-.37,1-.38,1-.4,1.07h3.06Z"/><path class="cls-7" d="M242.88,65.67a6.09,6.09,0,0,0-1.62-1.13,3.84,3.84,0,0,0-1.62-.37,3,3,0,0,0-2.44,1,4.23,4.23,0,0,0-.84,2.84,5.71,5.71,0,0,0,.21,1.63,3.21,3.21,0,0,0,.63,1.19,2.65,2.65,0,0,0,1,.73,3.67,3.67,0,0,0,1.4.25,4.78,4.78,0,0,0,3.24-1.5v1.95a5.76,5.76,0,0,1-3.32,1,4.76,4.76,0,0,1-3.65-1.42,6.26,6.26,0,0,1,0-7.73h0a4.73,4.73,0,0,1,3.65-1.43,5.75,5.75,0,0,1,3.32,1Z"/><path class="cls-7" d="M250.71,62.86h1.78l3.89,10.21h-1.81l-.89-2.51h-4.14l-.22.62-.23.64-.23.64-.21.61h-1.82Zm.88,2.08-.38,1-.37,1-.38,1-.4,1.07h3.06Z"/><path class="cls-7" d="M260.91,62.86h2.93a8.69,8.69,0,0,1,2.52.33,5.1,5.1,0,0,1,1.8.91,4.14,4.14,0,0,1,1,1.6,6.45,6.45,0,0,1,.36,2.26,6.66,6.66,0,0,1-.35,2.28,3.91,3.91,0,0,1-1.06,1.59,6.36,6.36,0,0,1-4.32,1.24h-2.93Zm1.72,1.48v7.24H264a3.94,3.94,0,0,0,2.83-.86,3.71,3.71,0,0,0,.89-2.77,3.67,3.67,0,0,0-.89-2.74,3.93,3.93,0,0,0-2.83-.87Z"/><polygon class="cls-7" points="274.88 62.86 281.47 62.86 281.47 64.37 276.59 64.37 276.59 66.88 281.27 66.88 281.27 68.39 276.59 68.39 276.59 71.56 281.59 71.56 281.59 73.06 274.88 73.06 274.88 62.86"/><path class="cls-7" d="M286.94,62.86h2.32l2.37,6.32L292.82,66,294,62.86h2.31V73.06h-1.69V65.35q-.53,1.44-1.1,2.93l-1.1,2.9h-1.61l-2.19-5.84v7.73h-1.69Z"/><path class="cls-7" d="M300.67,62.86h1.91l2.62,3.88,1.3-1.94,1.3-1.94h1.9L306,68.26v4.81h-1.73V68.26Z"/><rect class="cls-7" x="322.8" y="62.86" width="1.72" height="10.21"/><polygon class="cls-7" points="330.2 62.86 332.31 62.86 336.34 70.46 336.34 62.86 338.02 62.86 338.02 73.06 335.91 73.06 331.88 65.46 331.88 73.06 330.2 73.06 330.2 62.86"/><polygon class="cls-7" points="351.39 62.86 360.08 62.86 360.08 64.37 356.61 64.37 356.61 73.06 354.88 73.06 354.88 64.37 351.39 64.37 351.39 62.86"/><path class="cls-7" d="M364.52,62.86h3.59a5.3,5.3,0,0,1,1.43.17,3,3,0,0,1,1.06.51,2.17,2.17,0,0,1,.65.82,2.7,2.7,0,0,1,.22,1.12,2.84,2.84,0,0,1-.28,1.34,1.65,1.65,0,0,1-.9.77,2.5,2.5,0,0,1,1.18,1,2.88,2.88,0,0,1,.4,1.56,2.63,2.63,0,0,1-1,2.18,4.15,4.15,0,0,1-2.67.76h-3.72Zm1.72,1.48v2.56H368a2.21,2.21,0,0,0,1.3-.31,1.12,1.12,0,0,0,.43-1q0-1.28-1.73-1.28Zm0,4v3.2h1.93a2.22,2.22,0,0,0,1.44-.39,1.51,1.51,0,0,0,.46-1.21,1.47,1.47,0,0,0-.46-1.21,2.22,2.22,0,0,0-1.44-.39Z"/><rect class="cls-7" x="377.27" y="62.86" width="1.72" height="10.21"/><polygon class="cls-7" points="384.65 62.86 386.37 62.86 386.37 71.56 391.15 71.56 391.15 73.06 384.65 73.06 384.65 62.86"/><rect class="cls-7" x="395.6" y="62.86" width="1.72" height="10.21"/><path class="cls-7" d="M409.26,65a11.27,11.27,0,0,0-1.6-.62,4.66,4.66,0,0,0-1.32-.21,2.66,2.66,0,0,0-1.53.37,1.21,1.21,0,0,0-.53,1.05,1,1,0,0,0,.32.83h0a3.19,3.19,0,0,0,1.4.49l.8.17a4.5,4.5,0,0,1,2.27,1.08,2.69,2.69,0,0,1,.78,2,2.77,2.77,0,0,1-1,2.31,4.74,4.74,0,0,1-3,.78,7.7,7.7,0,0,1-1.55-.17,12.4,12.4,0,0,1-1.76-.51V70.73a7,7,0,0,0,3.31,1.05,2.8,2.8,0,0,0,1.61-.39,1.31,1.31,0,0,0,.56-1.14,1.42,1.42,0,0,0-.1-.56,1.27,1.27,0,0,0-.28-.43,2.05,2.05,0,0,0-.55-.32,4.27,4.27,0,0,0-.82-.24l-.8-.16a4.43,4.43,0,0,1-2.25-1,2.49,2.49,0,0,1-.72-1.9,2.71,2.71,0,0,1,1-2.2,4.06,4.06,0,0,1,2.65-.79,9.63,9.63,0,0,1,3.07.56Z"/><rect class="cls-7" x="415.03" y="62.86" width="1.72" height="10.21"/></g></g></svg>