<svg xmlns="http://www.w3.org/2000/svg" viewBox="0 0 558.93 141.73"><defs><style>.cls-1{font-size:33px;font-family:Calibri-Bold, Calibri;font-weight:700;letter-spacing:0.01em;}.cls-1,.cls-7{fill:#5b5b5b;}.cls-2{letter-spacing:0em;}.cls-3{letter-spacing:-0.01em;}.cls-4{letter-spacing:0.01em;}.cls-5{letter-spacing:0em;}.cls-6{letter-spacing:-0.07em;}.cls-7{font-size:19.21px;font-family:Calibri, Calibri;letter-spacing:0.05em;}.cls-8{letter-spacing:0.04em;}.cls-9{letter-spacing:0.05em;}.cls-10,.cls-15{fill:#2b2a29;}.cls-10,.cls-11,.cls-12,.cls-13,.cls-14{fill-rule:evenodd;}.cls-11{fill:#d7b56d;}.cls-12{fill:#bb2b36;}.cls-13{fill:#fff;}.cls-14,.cls-16{fill:#fefefe;}</style></defs><title>Asset 1</title><g id="Layer_2" data-name="Layer 2"><g id="Layer_1-2" data-name="Layer 1"><text class="cls-1" transform="translate(137.6 68)">THE GUIVY <tspan class="cls-2" x="159.5" y="0">Z</tspan><tspan x="175.38" y="0">AL</tspan><tspan class="cls-3" x="209.99" y="0">D</tspan><tspan class="cls-4" x="230.35" y="0">A</tspan><tspan class="cls-5" x="250.68" y="0">S</tspan><tspan class="cls-6" x="266.28" y="0">T</tspan><tspan x="280.36" y="0">ANISHVILI</tspan></text><text class="cls-7" transform="translate(137.6 94.24)">AMERICAN <tspan class="cls-8" x="98.94" y="0">A</tspan><tspan class="cls-9" x="110.88" y="0">CADEMY IN TBILISI</tspan></text><path class="cls-10" d="M49,0H67.68a49.07,49.07,0,0,1,49,49V92.78a49.08,49.08,0,0,1-49,49H49a49.07,49.07,0,0,1-49-49V49A49.07,49.07,0,0,1,49,0"/><path class="cls-11" d="M49,1H67.68A48,48,0,0,1,115.59,49V92.78a48,48,0,0,1-47.91,47.91H49A48,48,0,0,1,1,92.78V49A48,48,0,0,1,49,1"/><path class="cls-10" d="M49,9.41H67.68A39.66,39.66,0,0,1,107.22,49V92.78a39.66,39.66,0,0,1-39.54,39.54H49A39.66,39.66,0,0,1,9.41,92.78V49A39.65,39.65,0,0,1,49,9.41"/><path class="cls-12" d="M49,11.5H67.68A37.56,37.56,0,0,1,105.13,49V92.78a37.57,37.57,0,0,1-37.45,37.45H49A37.56,37.56,0,0,1,11.5,92.78V49A37.56,37.56,0,0,1,49,11.5"/><path class="cls-13" d="M59.21,78.37a4.34,4.34,0,0,1,2.27,2.92C62,84.18,60,84.66,60,86.18c0,1.16-.52,1-.77.16-.32-1.1,1.86-2.77.05-3.95-.51,1.34,0,2.49-.92,3-3.41-3.32,1.21-4.38.89-7.06m2.27,8.91c-1.16.35-1.74,1.66-2.67,2.15a1.72,1.72,0,0,1-2.62-1.64c0-1.1.93-1.43,1-2.52,1.28.63.92,2.68,2.36,2.36,1.24-.44.71-2.55,2.06-3.24C62.08,85.21,62.34,86.58,61.48,87.28ZM36.09,75.47c-.35-1.83-1-5.74-3.36-4.94-2,.45-.37,5.27.07,6.76,1.83,6.11,1.37,8.85-2,14.45a9.64,9.64,0,0,0,2.32,2.47c.32-2.87.68-5.71,1-8.57C38.13,84.59,36.65,78.37,36.09,75.47Zm13.37-29.8a6.09,6.09,0,0,0-2.17,1.72c-.84,0-1.57.1-2.36.15a17.11,17.11,0,0,1,2.48-5c.46-.7,1.51-1.52,1.41-2.34a5.46,5.46,0,0,0-.48-1.67c-.93-1.62-2.7-1.64-4.15-.72-2.57,1.64-.16,1.82-.26,4.25-.12,2.73-4.24,4.48-5.19,7.17A21.88,21.88,0,0,0,41,50.56a3.47,3.47,0,0,0-3.32,2.06A4.16,4.16,0,0,0,32,51.94a3.41,3.41,0,0,0-1.2,4.74c-5,3-1.21,7.07-3.9,9.5a4.53,4.53,0,0,0,1.13.24,6.06,6.06,0,0,0,1.74,0c.55,0,1.12-.09,1.7-.17l-.18-.11a17.18,17.18,0,0,0,3.16-.94A7.1,7.1,0,0,0,38.6,60.8c.9.22,1.26.66,2.14.74,2.76.23,4.38-1.93,6-3.61s3.36-3.75,4.76-3.26c.49,1.56,2.19,3.3,1.68,5.39a7.19,7.19,0,0,1-2,3.15c-2.15,2-4.79,1.2-7.47,1.11s-5.24.44-8.26,4.47a8.19,8.19,0,0,0-3.49-1.46,6,6,0,0,0-6.32,5c-.35,3.38,3.72,14,1.6,14.24-1.17.11-2.56-5.57-3.16-12v20.3A25,25,0,0,0,49,119.77H67.68a25,25,0,0,0,24.9-24.9V75.11l-2.76-5.23c-2.55,1.25-5,2.57-7.63,3.78l0,0h0c1.33-2.9.65-6.74-1-10.83s-3.08-7.12-1.08-8.52a6,6,0,0,1,4.61-.74,5.47,5.47,0,0,1,1.62,1,1.82,1.82,0,0,0,2.88-1.58,2.21,2.21,0,0,0,1.42-1.12,33.93,33.93,0,0,0-1.87-3c-2.12-.11-4.88-.65-5.74-2.89-2-.11-3.24-1-2.87-3.46a3.76,3.76,0,0,0-2.28,1.69l-.37-2.73c-2.39,1.41-2.08,3.88-4.71,4.35-3.3.72-4.46,4.44-5.74,7l-.3-.14c.68-1.95,3.61-7.09-1.55-7.66a5.83,5.83,0,0,0-3.46.59c-1.57.54-1-.74-1-2a6.31,6.31,0,0,0,4-6.63c-1-7.77-12.92-7.27-13.35.69A6.3,6.3,0,0,0,56,43.57c-.15,1.47-.29,2.14-2,1.89a11.75,11.75,0,0,0-2.21-.21A5.71,5.71,0,0,0,49.46,45.67Zm20.86,37.7-.42-.79-3.2-.13,3.08-.09-.35-.66-4.3-.39,3.95-.26-.3-.55-4.44-.4,4.08-.28h0L68,79.06h0l-3.36-.3,3.08-.21-.2-.36H64.16V72l-.38-.7-.34,5.8-.29-7-.41-.76-.56,6.88L61.63,69,61,76.47,60.4,70.9l-.81,6L58.93,70l-.66,5.89-.44-6.7-.52,6.11-.66-5.6-.74,6.93-.59-6.7L54.81,76l-.71-4.18v6.34H45.19l6.48.57-6.19.78,6.93.56L45,80.84l6.26.48-6.48.77,6.92.36-7.44,1,8,.24-6.94.8,7.19.68-7.71.72,7.37.64-7.59.76,8.45.11-5.5.92c2.06,0,4.49,0,6.63,0v8.4c1.09,0-.24-4.12,1.21-5.05v5.05h.59v-6.9c3.86,1.63,3.46-1.21,6.56-2.24v13.92c-.06,1.48.08,4,1.7,4V88.36h7.66l-6.34-.92L71,87.25l-.58-.44-3.13-.25,4.51-.49-.24-.45L67,85.25l4.12-.45-.4-.74L67,83.73Zm17.75-8-5.74,3.42,8.06,5.74a5.66,5.66,0,0,0,1-4.67C91,78.06,89.25,76.65,88.08,75.32Z"/><path class="cls-14" d="M29.56,39.92l.6,1.47,1.57-.22-1,1.25,1,1.25-1.57-.22-.6,1.47L29,43.45l-1.57.22,1-1.25-1-1.25,1.57.22ZM77.82,29l.6,1.47L80,30.25,79,31.5l1,1.25-1.57-.22L77.82,34l-.59-1.47-1.57.22,1-1.25-1-1.25,1.57.22Zm-19.13-5.2.6,1.47L60.86,25l-1,1.25,1,1.25-1.57-.22-.6,1.47-.59-1.47-1.57.22,1-1.25-1-1.25,1.57.22ZM87.82,39.92l.59,1.47L90,41.17l-1,1.25,1,1.25-1.57-.22-.59,1.47-.6-1.47-1.57.22,1-1.25-1-1.25,1.57.22ZM24.33,56.63l.59,1.47,1.57-.22-1,1.25,1,1.25-1.57-.22-.59,1.47-.6-1.47-1.57.22,1-1.25-1-1.25,1.57.22Zm68.72,0,.59,1.47,1.57-.22-1,1.25,1,1.25-1.57-.22L93,61.63l-.6-1.47-1.57.22,1-1.25-1-1.25,1.57.22ZM39.57,29l.59,1.47,1.57-.22-1,1.25,1,1.25-1.57-.22L39.57,34,39,32.53l-1.57.22,1-1.25-1-1.25,1.57.22Z"/><path class="cls-10" d="M74.4,112.08a15.13,15.13,0,0,1-2.5,4.35c1.16-.52,2.26-1.1,3.39-1.62a19.37,19.37,0,0,1,3.46-1.47,8.16,8.16,0,0,1-.22,4A14.78,14.78,0,0,0,80,114.07c.19.52.43,1.36.63,2a6.69,6.69,0,0,0,.4-2.89,6.05,6.05,0,0,1,.76,1.95,4.85,4.85,0,0,0,.42-2.29,12.32,12.32,0,0,1,1.34.81,4.57,4.57,0,0,0-1.28-2.15c-1.55-.94-3.93-.13-5.51.83,2.11-5.94,11.73-6.06,11.79-13.7,0-2.56-1.19-4.14-2.14-5.89.85-.22,1.57-.61,1.62-1.47.07-1.2-3.9-3.34-4.94-3.68-.74.81-1.7,1.62-3.46-.07-.62-.59-.74-2-1.47-2.14-.28,0-.29.38-.7.58s-1.14.18-1.33.68a.8.8,0,0,0,.28,1.1c.88.54.71.7.24,1.6.27-.11,1-.72,1.23-.41s-.26.8-.53,1.1c.37-.05.7-.17,1-.19,1.14-.07,1.5,1.45,1.06,2.32A2.16,2.16,0,0,1,78,93.47c-.42.09-1.53,0-1.58-.55,0-.23,0-.55,0-.8-.23.31-.51.93-.79.84s-.11-.79-.19-1.2c-.26.3-.48.75-.64.94a3,3,0,0,0-1.74.12c-.15.11-.21.28-.1.35,1.38.8,4.18,2.57,6.17,2.69,1.19.07,1.44-.58,2.37-1,.69-.2,1.18,1.45,1.41,2.72.56,3.15-2.87,5.37-5.46,6.34A12.08,12.08,0,0,0,75,103.7c1-1.25,3.46-1.48,4-2.7a3.28,3.28,0,0,0-1.23-4.09c.18.54.58,1.78,0,1.8s-1.29-1.25-2-1.54c.37.73,1.19,1.91.89,2.22s-2.05-1.28-2.46-1.56c.24.6,1.58,1.83,1.21,2.12s-1.32-.57-2.19-1.08a14.78,14.78,0,0,1,1.48,2.24c.62,1.45-5.43,3.22-5.14,3.9.12.26,1.65.1,3.94.15-6,2-10.28,2-14.07-1.62a2.38,2.38,0,0,0-.15,1.25,42.33,42.33,0,0,1-7.15-4.72,3.64,3.64,0,0,0,.15,1.18,27.94,27.94,0,0,0-10.54-3.54c-.16.21.18,1,.43,1.17-1.53-.06-6.09.57-7.8,1.63,1.29.27,1.6.82.37,1.84-1.43,1.23-3.08,2.11-4.57,3.32,2.45-.25,1.89,1.33.74,2.73,1.35-.14,1.55.65.81,2.5,1.56-.71,1.08,2.12,1,2.38l.5.49c1.33-.31,1.45,2,3.12,2.55-.3-.27-.49-.84.13-.73s.83.95,1.44,1.06c1.7-1.31,3.83,1.26,4.57,0,.42,0,3.22.37,3-.26-.24-.86,1.9-.11,2.11-.11.47.1-.08-.48.65-.49.36,0,.75,0,.75-.24.58,0,.34-.45.88-.22s.66-.37,1.33-.22a.81.81,0,0,1,.81-.22c.07-.23.3-.29.52-.37-.61,0-2.61.3-2.21-.3-.82.17-2.21.63-2.52.4-.07-.05-.05-.22.16-.4-.47.07-2.51.64-2.85.2-.11-.14.08-.3.35-.49-5.9,1.65-9.17-4.31-6.93-7.22,3.68-4.78,12.19,4,17.76,5.45-.73.94-2.36,1-4.05,1,1.44.45,4.49,1.31,6,2.44.55.42.46.76.15,1.08a17.93,17.93,0,0,1-2.89,2.16,16.43,16.43,0,0,0,3.76-1.47c-.29.57-.94,1.39-1.33,2.14.79-.43,1.79-1.31,2.65-1.92a23.94,23.94,0,0,1-1.1,2.51,17.71,17.71,0,0,0,1.59-1.6c1.26-1.21.85.57.84,1.38a4.19,4.19,0,0,0,1-1.69c.88-3.27-3.06-3.86-5.3-4.13,2.29-1.35,6.08.25,8.73.14a21.05,21.05,0,0,0,8-2.05"/><polygon class="cls-10" points="46.63 39.49 47.55 38.78 51.12 45.29 69.21 78.19 73.61 86.37 74.61 85.05 75.87 90.94 70.4 86.81 72.27 86.96 46.63 39.49"/><path class="cls-15" d="M57.06,6.87a.61.61,0,0,0,.47-.18A1,1,0,0,0,57.7,6a.82.82,0,0,0-.18-.57.55.55,0,0,0-.41-.2.66.66,0,0,0-.51.2.81.81,0,0,0-.18.57,1,1,0,0,0,.19.68.62.62,0,0,0,.45.19m0,.62a1.31,1.31,0,0,1-1-.4A1.52,1.52,0,0,1,55.71,6,1.43,1.43,0,0,1,56,5.07a1.1,1.1,0,0,1,.77-.43l.05-.33c0-.21-.1-.36-.36-.46a.63.63,0,0,1-.38-.65h.71q0,.22.36.38a.62.62,0,0,1,.32.7l-.07.38a1.05,1.05,0,0,1,.67.42A1.38,1.38,0,0,1,58.4,6,1.52,1.52,0,0,1,58,7.08,1.29,1.29,0,0,1,57.06,7.49ZM52.69,4.42c0-.41-.14-.62-.43-.61a.51.51,0,0,0-.49.31,2.52,2.52,0,0,0-.14,1.07,3.75,3.75,0,0,0,.87,2.24h-.92a4.36,4.36,0,0,1-.66-2.17,2.5,2.5,0,0,1,.4-1.57,1.16,1.16,0,0,1,.93-.49.9.9,0,0,1,.79.51.88.88,0,0,1,.79-.51,1.14,1.14,0,0,1,.94.49,2.54,2.54,0,0,1,.38,1.56,4.31,4.31,0,0,1-.66,2.18h-.89a3.8,3.8,0,0,0,.85-2.24,2.62,2.62,0,0,0-.15-1.07.52.52,0,0,0-.5-.31c-.29,0-.44.2-.44.61V5.79h-.66ZM45.25,6.67l.43-.08a2.26,2.26,0,0,1-1-1.74,1.63,1.63,0,0,1,.35-1.14,1.2,1.2,0,0,1,.9-.43.88.88,0,0,1,.77.37.81.81,0,0,1,.71-.41.86.86,0,0,1,.75.36.66.66,0,0,1,.31-.31,1.18,1.18,0,0,1,.44-.09,1.25,1.25,0,0,1,.93.35,1.58,1.58,0,0,1,.41,1.16A2.43,2.43,0,0,1,49.85,6L49,6a2.16,2.16,0,0,0,.61-1.28A1.16,1.16,0,0,0,49.39,4,.55.55,0,0,0,49,3.81c-.3,0-.45.23-.43.71l0,.7-.65,0,0-.7c0-.46-.15-.69-.42-.68s-.4.24-.39.71l0,.7-.65,0,0-.7c0-.47-.16-.7-.45-.69a.55.55,0,0,0-.39.2,1.07,1.07,0,0,0-.17.75,2,2,0,0,0,1.22,1.63,6.82,6.82,0,0,1,1.94.21,1,1,0,0,1,.69.8l-.86,0a.62.62,0,0,0-.55-.37,6.05,6.05,0,0,0-1,0,5.22,5.22,0,0,0-1.59.22ZM44,6.38a1.33,1.33,0,0,1-.26,1.12,1.52,1.52,0,0,1-.94.45,1.59,1.59,0,0,1-.91-.17,1.12,1.12,0,0,1-.55-.95,1.53,1.53,0,0,1,.11-.73l.64.22a1.38,1.38,0,0,0,0,.55.49.49,0,0,0,.22.37.63.63,0,0,0,.44.09.73.73,0,0,0,.5-.22.89.89,0,0,0,.08-.64l-.24-1.82a.39.39,0,0,0-.19-.3.71.71,0,0,0-.47-.06.58.58,0,0,0-.43.19.46.46,0,0,0-.07.32.68.68,0,0,0,.18.38l-.56.35a1.14,1.14,0,0,1-.3-.63,1,1,0,0,1,.25-.77,1.29,1.29,0,0,1,.85-.43,1.38,1.38,0,0,1,1,.19,1,1,0,0,1,.43.69ZM39.56,7.94a.59.59,0,0,0,.4-.31,1,1,0,0,0,0-.7,1,1,0,0,0-.34-.59.6.6,0,0,0-.49-.11.57.57,0,0,0-.4.31,1,1,0,0,0,0,.68,1.11,1.11,0,0,0,.31.61A.56.56,0,0,0,39.56,7.94Zm.15.61a1.36,1.36,0,0,1-1-.17A1.61,1.61,0,0,1,38,7.29l-.61-2.61.69-.16.36,1.54A.89.89,0,0,1,39,5.65a1.32,1.32,0,0,1,1,.15,1.47,1.47,0,0,1,.63,1,1.52,1.52,0,0,1-.13,1.16A1.31,1.31,0,0,1,39.71,8.55ZM35.35,5.28a1.63,1.63,0,0,0,.93.88,2,2,0,0,1,1,1.23,2,2,0,0,1,0,1.21,1.24,1.24,0,0,1-1.89.63,2,2,0,0,1-.72-1,1.89,1.89,0,0,1-.08-.94h.69a2.92,2.92,0,0,0,.09.77,1.3,1.3,0,0,0,.41.68.55.55,0,0,0,.5.06.52.52,0,0,0,.4-.45,1.75,1.75,0,0,0-.11-.74,1.66,1.66,0,0,0-1-1,1.77,1.77,0,0,1-1-1.12ZM33,7.09a1.47,1.47,0,0,0,.62.81,1.47,1.47,0,0,1,.62.8,1.37,1.37,0,0,1,0,1.07,1.34,1.34,0,0,1-2.52-.12L30.65,7l.65-.26,1,2.63a1,1,0,0,0,.41.51.53.53,0,0,0,.49,0,.62.62,0,0,0,.36-.35.85.85,0,0,0,0-.62A1.2,1.2,0,0,0,33,8.29a1.77,1.77,0,0,1-.67-.95ZM28,9.34a1.47,1.47,0,0,0,.72.72,1.45,1.45,0,0,1,.72.71,1.37,1.37,0,0,1,.15,1.06,1.34,1.34,0,0,1-2.51.24L25.71,9.6l.61-.35,1.41,2.45a1,1,0,0,0,.47.45.53.53,0,0,0,.49,0,.62.62,0,0,0,.31-.4.84.84,0,0,0-.13-.61,1.2,1.2,0,0,0-.64-.58,1.77,1.77,0,0,1-.79-.84Zm-1.65,4.81a8.29,8.29,0,0,0-.91-2.1,2.2,2.2,0,0,0-.71-.77.51.51,0,0,0-.56,0,.53.53,0,0,0-.21.53,2.19,2.19,0,0,0,.39,1,7.81,7.81,0,0,0,1.55,1.7l-.66.43a10.91,10.91,0,0,1-1.44-1.69,2.74,2.74,0,0,1-.49-1.43A1.17,1.17,0,0,1,25,10.67a2.72,2.72,0,0,1,1.09,1,11.17,11.17,0,0,1,.94,2ZM20.1,18l.29-.33a2.26,2.26,0,0,1-1.86-.71,1.62,1.62,0,0,1-.46-1.11,1.2,1.2,0,0,1,.42-.91.88.88,0,0,1,.83-.21.81.81,0,0,1,.29-.77.86.86,0,0,1,.81-.2.66.66,0,0,1,0-.44,1.17,1.17,0,0,1,.28-.35,1.25,1.25,0,0,1,.94-.32,1.59,1.59,0,0,1,1.05.63,2.43,2.43,0,0,1,.49,1.26l-.67.58a2.16,2.16,0,0,0-.35-1.38,1.17,1.17,0,0,0-.62-.46.56.56,0,0,0-.44.14q-.35.29.12.83l.46.53-.49.43-.46-.53q-.46-.52-.76-.26c-.2.18-.15.44.15.79l.46.53-.49.43-.46-.53c-.31-.35-.57-.44-.79-.25a.56.56,0,0,0-.17.4,1.07,1.07,0,0,0,.35.69,2,2,0,0,0,2,.48,6.8,6.8,0,0,1,1.63-1.07,1,1,0,0,1,1,.17l-.65.57a.62.62,0,0,0-.66.07,5.9,5.9,0,0,0-.79.59,5.19,5.19,0,0,0-1.08,1.18Zm-.93,2.15a8.25,8.25,0,0,0-1.39-1.82,2.2,2.2,0,0,0-.87-.57.52.52,0,0,0-.55.11.53.53,0,0,0-.08.56,2.2,2.2,0,0,0,.61.84A7.76,7.76,0,0,0,18.8,20.5l-.54.57a11,11,0,0,1-1.81-1.3,2.73,2.73,0,0,1-.82-1.27A1.17,1.17,0,0,1,17,17.06a2.72,2.72,0,0,1,1.31.76,11.08,11.08,0,0,1,1.39,1.74Zm-4-.31a1,1,0,0,1,.38.84,1.17,1.17,0,0,1,1.08.23,1.4,1.4,0,0,1,.57.9,1.31,1.31,0,0,1-.33,1,1.36,1.36,0,0,1-.88.57A1.27,1.27,0,0,1,15,23a2,2,0,0,1-.42-.49l.56-.45a1.2,1.2,0,0,0,.39.49.5.5,0,0,0,.41.1.69.69,0,0,0,.42-.28.73.73,0,0,0,.18-.46.41.41,0,0,0-.14-.34l-.33-.26a.81.81,0,0,0-.37-.18.31.31,0,0,0-.3.13l-.2.26-.48-.38.21-.26a.27.27,0,0,0,0-.26.72.72,0,0,0-.25-.3.48.48,0,0,0-.36-.1.51.51,0,0,0-.36.21.61.61,0,0,0-.18.45.39.39,0,0,0,.15.25.78.78,0,0,0,.28.13L14,22a1.63,1.63,0,0,1-.48-.25.88.88,0,0,1-.31-.71,1.39,1.39,0,0,1,.33-.9,1.2,1.2,0,0,1,.82-.5A1.07,1.07,0,0,1,15.14,19.8ZM14.4,25a.59.59,0,0,0,.11-.49.9.9,0,0,0-.4-.5.88.88,0,0,0-.59-.2.63.63,0,0,0-.54.75.86.86,0,0,0,.38.5.9.9,0,0,0,.61.21A.62.62,0,0,0,14.4,25Zm-2.73-1.19q-.11-.08-.33.23l-.21.3-.5-.35.23-.32a.75.75,0,0,1,.69-.38.92.92,0,0,1,.18-.86.78.78,0,0,1,.5-.35.67.67,0,0,1,.54.13l1.74,1.23a1.34,1.34,0,0,1,.65.95,1.37,1.37,0,0,1-.25,1A1.33,1.33,0,0,1,14,26a1.4,1.4,0,0,1-1.09-.29,1.39,1.39,0,0,1-.64-.91,1.36,1.36,0,0,1,.27-1,1,1,0,0,1,.55-.39l-.76-.54q-.11-.08-.31.2c-.09.13-.1.22,0,.28l.27.19-.37.53Zm1.57,4a8.28,8.28,0,0,0-1.78-1.44,2.2,2.2,0,0,0-1-.35.51.51,0,0,0-.51.24.53.53,0,0,0,.06.56,2.2,2.2,0,0,0,.79.67,7.75,7.75,0,0,0,2.16.79l-.39.68a11,11,0,0,1-2.06-.84,2.75,2.75,0,0,1-1.1-1,1.17,1.17,0,0,1,1-1.73,2.71,2.71,0,0,1,1.45.43,11.1,11.1,0,0,1,1.76,1.36Zm-2.16,2.83a.58.58,0,0,0,0-.47c-.05-.15-.22-.3-.52-.45a.92.92,0,0,0-.6-.12.54.54,0,0,0-.38.3.65.65,0,0,0,0,.52.81.81,0,0,0,.44.45.86.86,0,0,0,.69.13A.72.72,0,0,0,11.08,30.68Zm.55.28a1.31,1.31,0,0,1-.84.7,1.5,1.5,0,0,1-1.1-.13L8,30.66a.84.84,0,0,1-.48-.59,1,1,0,0,1,.08-.67L8.3,28l.53.27L8.19,29.6c-.1.19-.06.33.1.42L9,30.4a1,1,0,0,1,0-.74A1.34,1.34,0,0,1,9.82,29a1.37,1.37,0,0,1,1.11.15,1.44,1.44,0,0,1,.78.83A1.3,1.3,0,0,1,11.63,31Zm-5.24,1.3a1.62,1.62,0,0,0,1.27-.14,2,2,0,0,1,1.61,0,2,2,0,0,1,.95.76,1.24,1.24,0,0,1-.73,1.85,1.94,1.94,0,0,1-1.23-.1,1.88,1.88,0,0,1-.77-.54l.44-.53a2.93,2.93,0,0,0,.65.43,1.29,1.29,0,0,0,.79.13.55.55,0,0,0,.37-.34.52.52,0,0,0-.08-.59,1.76,1.76,0,0,0-.63-.4,1.67,1.67,0,0,0-1.39.08,1.76,1.76,0,0,1-1.5,0Zm1,3.64a1.94,1.94,0,0,0-1.07-.08,1.16,1.16,0,0,0-.56.38l1.95.48-.18.65L5.66,36.7a1.08,1.08,0,0,0,.27.61,2,2,0,0,0,1,.5,1.9,1.9,0,0,0,1,0,.83.83,0,0,0,.59-.62.9.9,0,0,0-.19-.85A2,2,0,0,0,7.43,35.9Zm.21-.7A2.27,2.27,0,0,1,9,36.05a1.54,1.54,0,0,1,.18,1.36,1.49,1.49,0,0,1-.9,1.07,2.39,2.39,0,0,1-1.53,0,1.93,1.93,0,0,1-1.32-.89,1.84,1.84,0,0,1-.23-1H4.94l.19-.66.18.1A1.75,1.75,0,0,1,6,35.29,2.09,2.09,0,0,1,7.65,35.2ZM5.12,39.53a1.47,1.47,0,0,0,1-.1,1.46,1.46,0,0,1,1-.1A1.37,1.37,0,0,1,8,39.9,1.34,1.34,0,0,1,6.62,42l-2.79-.49L4,40.8l2.79.49a1,1,0,0,0,.65-.08.53.53,0,0,0,.29-.4.62.62,0,0,0-.11-.49A.85.85,0,0,0,7,40a1.21,1.21,0,0,0-.86.12A1.76,1.76,0,0,1,5,40.22ZM3.54,43.46A1.62,1.62,0,0,0,4.74,43a2,2,0,0,1,1.56-.4,2,2,0,0,1,1.1.5,1.24,1.24,0,0,1-.26,2,2,2,0,0,1-1.22.21A1.86,1.86,0,0,1,5.06,45l.3-.62a2.91,2.91,0,0,0,.73.25,1.31,1.31,0,0,0,.79-.07.55.55,0,0,0,.27-.42.52.52,0,0,0-.22-.56,1.74,1.74,0,0,0-.71-.23,1.66,1.66,0,0,0-1.33.42,1.76,1.76,0,0,1-1.44.4Zm2,3.91a.6.6,0,0,0-.2-.45.93.93,0,0,0-.66-.22.94.94,0,0,0-.64.16.59.59,0,0,0-.23.46.6.6,0,0,0,.21.45.9.9,0,0,0,.63.22.93.93,0,0,0,.67-.19A.61.61,0,0,0,5.58,47.37ZM6.52,50l0-.4a2.5,2.5,0,0,1-1.76.67,1.78,1.78,0,0,1-1.13-.37,1.21,1.21,0,0,1-.39-1,1.19,1.19,0,0,1,.29-.77,1.21,1.21,0,0,1-.25-.78,1.34,1.34,0,0,1,.39-1A1.44,1.44,0,0,1,4.74,46a1.47,1.47,0,0,1,1.07.43,1.29,1.29,0,0,1,.38,1,1.31,1.31,0,0,1-.42.93,1.44,1.44,0,0,1-1.09.38,1.64,1.64,0,0,1-.76-.24,1.25,1.25,0,0,0-.1.42.6.6,0,0,0,.2.47,1.13,1.13,0,0,0,.73.21,2.29,2.29,0,0,0,.91-.16,2.21,2.21,0,0,0,.81-.63,3.83,3.83,0,0,1,.34-1.33,1,1,0,0,1,.74-.52l0,.95a.32.32,0,0,0-.29.19,2.22,2.22,0,0,0-.13.86A5.77,5.77,0,0,0,7.15,50Zm0,6-.06-.43a2.26,2.26,0,0,1-1.76.93,1.63,1.63,0,0,1-1.13-.38,1.2,1.2,0,0,1-.41-.91.89.89,0,0,1,.39-.76.81.81,0,0,1-.39-.72.86.86,0,0,1,.38-.74.65.65,0,0,1-.3-.32,1.18,1.18,0,0,1-.08-.44,1.25,1.25,0,0,1,.38-.92,1.59,1.59,0,0,1,1.17-.38A2.43,2.43,0,0,1,6,51.34v.89a2.16,2.16,0,0,0-1.27-.64,1.17,1.17,0,0,0-.75.17.56.56,0,0,0-.18.42c0,.3.22.45.7.45h.7v.65h-.7q-.69,0-.69.4t.69.41h.7v.65h-.7c-.47,0-.7.14-.7.43a.56.56,0,0,0,.19.39,1.07,1.07,0,0,0,.74.19A2,2,0,0,0,6.4,54.59a6.82,6.82,0,0,1,.26-1.93A1,1,0,0,1,7.47,52v.86a.62.62,0,0,0-.39.54,5.92,5.92,0,0,0-.07,1A5.2,5.2,0,0,0,7.19,56ZM3.2,58.23a1.62,1.62,0,0,0,1.13-.6,2,2,0,0,1,1.5-.6A2,2,0,0,1,7,57.39a1.24,1.24,0,0,1,0,2,2,2,0,0,1-1.18.36,1.87,1.87,0,0,1-.91-.23l.22-.65a2.88,2.88,0,0,0,.76.16,1.29,1.29,0,0,0,.78-.17.55.55,0,0,0,.22-.46.52.52,0,0,0-.29-.52,1.77,1.77,0,0,0-.74-.14,1.66,1.66,0,0,0-1.26.59,1.76,1.76,0,0,1-1.38.58ZM4.34,61.7a.83.83,0,0,0-.38.08.34.34,0,0,0-.15.34.47.47,0,0,0,.09.33.64.64,0,0,0,.43.1.64.64,0,0,0,.48-.15.9.9,0,0,1-.18-.63A.63.63,0,0,0,4.34,61.7Zm2.54,0a.64.64,0,0,0-.2-.47A1,1,0,0,0,6,61a.83.83,0,0,0-.59.18.64.64,0,0,0,0,.92.84.84,0,0,0,.59.18.9.9,0,0,0,.65-.19A.67.67,0,0,0,6.88,61.66Zm.61,0a1.38,1.38,0,0,1-.38,1A1.42,1.42,0,0,1,6,63a1.48,1.48,0,0,1-.73-.23,1.51,1.51,0,0,1-.4.31,1.18,1.18,0,0,1-.56.12,1.19,1.19,0,0,1-.82-.28,1,1,0,0,1-.3-.8,1,1,0,0,1,.36-.84A1.22,1.22,0,0,1,4.26,61a1.53,1.53,0,0,1,.42.06A1.28,1.28,0,0,1,6,60.32a1.4,1.4,0,0,1,1.09.42A1.38,1.38,0,0,1,7.49,61.66Zm-.06,4.87a8.27,8.27,0,0,0-2.26-.36,2.21,2.21,0,0,0-1,.19.51.51,0,0,0-.33.46.53.53,0,0,0,.33.46,2.18,2.18,0,0,0,1,.19,7.76,7.76,0,0,0,2.26-.39v.79a11,11,0,0,1-2.2.3,2.74,2.74,0,0,1-1.47-.35,1.17,1.17,0,0,1,0-2,2.72,2.72,0,0,1,1.47-.35,11.1,11.1,0,0,1,2.2.3ZM4.3,68.8a.94.94,0,0,1,.81.42,1.18,1.18,0,0,1,1-.49,1.4,1.4,0,0,1,1,.35,1.31,1.31,0,0,1,.37,1,1.36,1.36,0,0,1-.34,1,1.27,1.27,0,0,1-1,.35,2,2,0,0,1-.63-.13l.17-.7a1.21,1.21,0,0,0,.61.14.5.5,0,0,0,.38-.18.69.69,0,0,0,.16-.47.73.73,0,0,0-.14-.47.42.42,0,0,0-.32-.18H6a.82.82,0,0,0-.41.09.31.31,0,0,0-.16.29v.33H4.81v-.33a.27.27,0,0,0-.12-.24.73.73,0,0,0-.38-.08.48.48,0,0,0-.35.14A.51.51,0,0,0,3.8,70a.61.61,0,0,0,.13.47.38.38,0,0,0,.27.1.75.75,0,0,0,.3-.07l.21.67a1.63,1.63,0,0,1-.54.1.87.87,0,0,1-.68-.37A1.39,1.39,0,0,1,3.2,70a1.21,1.21,0,0,1,.33-.9A1.06,1.06,0,0,1,4.3,68.8Zm3.13,4.26a8.27,8.27,0,0,0-2.26-.36,2.21,2.21,0,0,0-1,.19.51.51,0,0,0-.33.46.53.53,0,0,0,.33.46,2.19,2.19,0,0,0,1,.19,7.76,7.76,0,0,0,2.26-.39v.79a11,11,0,0,1-2.2.3,2.73,2.73,0,0,1-1.47-.35,1.17,1.17,0,0,1,0-2A2.73,2.73,0,0,1,5.22,72a11.17,11.17,0,0,1,2.2.3ZM5.94,76a.87.87,0,0,0-.55.21.76.76,0,0,0-.27.62.74.74,0,0,0,.27.57.83.83,0,0,0,.54.23.87.87,0,0,0,.74-.26.91.91,0,0,0,.19-.55,1,1,0,0,0-.18-.55A.85.85,0,0,0,5.94,76Zm0-.7a1.46,1.46,0,0,1,1.55,1.52A1.46,1.46,0,0,1,7,77.9a1.49,1.49,0,0,1-1.1.4,1.37,1.37,0,0,1-1-.41,1.41,1.41,0,0,1-.45-1.1v-.2a.65.65,0,0,0-.43-.12.25.25,0,0,0-.21.09.62.62,0,0,0-.06.37c0,.19,0,.31.1.36a.52.52,0,0,0,.29.08V78a.86.86,0,0,1-.77-.33,1.35,1.35,0,0,1-.23-.79,1.44,1.44,0,0,1,.21-.79A.7.7,0,0,1,4,75.81a1.29,1.29,0,0,1,.65.17A1.53,1.53,0,0,1,5.94,75.26Z"/><path class="cls-15" d="M109.21,77.25a8.29,8.29,0,0,0,2.26.36,2.18,2.18,0,0,0,1-.19.51.51,0,0,0,.33-.46.53.53,0,0,0-.33-.46,2.18,2.18,0,0,0-1-.19,7.77,7.77,0,0,0-2.26.39v-.79a11,11,0,0,1,2.21-.3,2.73,2.73,0,0,1,1.47.35,1.17,1.17,0,0,1,0,2,2.72,2.72,0,0,1-1.47.35,11.12,11.12,0,0,1-2.21-.3Zm.56-3.54a.59.59,0,0,0,.19.46.9.9,0,0,0,.61.18.88.88,0,0,0,.6-.18.63.63,0,0,0,0-.93.86.86,0,0,0-.6-.18.91.91,0,0,0-.62.18A.62.62,0,0,0,109.77,73.71Zm2.92-.6c.09,0,.14-.13.14-.38v-.36h.61v.4a.75.75,0,0,1-.34.7.92.92,0,0,1,.34.81.78.78,0,0,1-.21.57.67.67,0,0,1-.51.21h-2.13a1.35,1.35,0,0,1-1.08-.4,1.37,1.37,0,0,1-.36-.93,1.34,1.34,0,0,1,.38-1,1.4,1.4,0,0,1,1.06-.39,1.38,1.38,0,0,1,1,.38,1.35,1.35,0,0,1,.36,1,1,1,0,0,1-.23.64h.93c.09,0,.14-.11.14-.34s0-.24-.14-.24h-.33v-.65Zm-.18-1.87a1.47,1.47,0,0,0-1,.27,1.45,1.45,0,0,1-1,.28,1.37,1.37,0,0,1-1-.4,1.34,1.34,0,0,1,1-2.3h2.83v.7H110.6A1,1,0,0,0,110,70a.53.53,0,0,0-.21.45.62.62,0,0,0,.19.47.85.85,0,0,0,.59.19,1.2,1.2,0,0,0,.82-.27,1.77,1.77,0,0,1,1.13-.27Zm-3.3-3.83a8.29,8.29,0,0,0,2.26.36,2.18,2.18,0,0,0,1-.19.51.51,0,0,0,.33-.46.53.53,0,0,0-.33-.46,2.18,2.18,0,0,0-1-.19,7.77,7.77,0,0,0-2.26.39v-.79a11,11,0,0,1,2.21-.3,2.73,2.73,0,0,1,1.47.35,1.17,1.17,0,0,1,0,2,2.72,2.72,0,0,1-1.47.35,11.19,11.19,0,0,1-2.21-.3Zm.86-7.28.06.44a2.26,2.26,0,0,1,1.76-.94A1.63,1.63,0,0,1,113,60a1.2,1.2,0,0,1,.41.91.89.89,0,0,1-.39.76.81.81,0,0,1,.39.72.85.85,0,0,1-.38.74.66.66,0,0,1,.3.32,1.18,1.18,0,0,1,.08.44,1.25,1.25,0,0,1-.38.92,1.59,1.59,0,0,1-1.17.38,2.42,2.42,0,0,1-1.27-.46v-.89a2.16,2.16,0,0,0,1.27.64,1.16,1.16,0,0,0,.75-.17.55.55,0,0,0,.18-.42q0-.45-.7-.45h-.7v-.65h.7q.69,0,.69-.4t-.69-.41h-.7v-.65h.7c.47,0,.7-.14.7-.43a.55.55,0,0,0-.19-.39,1.06,1.06,0,0,0-.74-.19,2,2,0,0,0-1.66,1.17,6.76,6.76,0,0,1-.26,1.93,1,1,0,0,1-.81.67v-.86a.62.62,0,0,0,.39-.54,6,6,0,0,0,.07-1,5.2,5.2,0,0,0-.18-1.59ZM109.21,58a8.29,8.29,0,0,0,2.26.36,2.18,2.18,0,0,0,1-.19.51.51,0,0,0,.33-.46.53.53,0,0,0-.33-.46,2.19,2.19,0,0,0-1-.19,7.8,7.8,0,0,0-2.26.39v-.79a10.92,10.92,0,0,1,2.21-.3,2.73,2.73,0,0,1,1.47.35,1.17,1.17,0,0,1,0,2,2.72,2.72,0,0,1-1.47.35,11.19,11.19,0,0,1-2.21-.3Zm.56-3.55a.6.6,0,0,0,.18.47,1,1,0,0,0,.68.18.82.82,0,0,0,.57-.18.55.55,0,0,0,.2-.41.66.66,0,0,0-.2-.51.81.81,0,0,0-.57-.18A1,1,0,0,0,110,54,.62.62,0,0,0,109.77,54.45Zm-.62,0a1.32,1.32,0,0,1,.4-1,1.52,1.52,0,0,1,1.1-.38,1.43,1.43,0,0,1,.92.31,1.1,1.1,0,0,1,.43.77l.33.05q.31,0,.46-.36a.63.63,0,0,1,.65-.39v.71q-.22,0-.38.36a.62.62,0,0,1-.7.32l-.38-.07a1.05,1.05,0,0,1-.42.67,1.38,1.38,0,0,1-.91.31,1.51,1.51,0,0,1-1.09-.38A1.3,1.3,0,0,1,109.14,54.46Zm.63-4.9a.54.54,0,0,0,.34.45,2.77,2.77,0,0,0,1.21.2,2.68,2.68,0,0,0,1.17-.18.53.53,0,0,0,.34-.46.52.52,0,0,0-.34-.49,3.08,3.08,0,0,0-1.18-.17,2.7,2.7,0,0,0-1.2.2C109.87,49.24,109.76,49.39,109.77,49.56ZM109.18,51a4,4,0,0,0,2.34.84,1.93,1.93,0,0,0,1-.2.55.55,0,0,0,.13-.92,4.93,4.93,0,0,1-1.31.18,2.71,2.71,0,0,1-1.64-.4,1.19,1.19,0,0,1-.53-.94,1.2,1.2,0,0,1,.53-.94,2.73,2.73,0,0,1,1.68-.41,2.7,2.7,0,0,1,1.55.37,1.14,1.14,0,0,1,.53,1,1.19,1.19,0,0,1-.34.78,1,1,0,0,1,.34.76,1.19,1.19,0,0,1-.54,1.08,2.51,2.51,0,0,1-1.37.35,4,4,0,0,1-2.34-.74Zm4-6.77a1.62,1.62,0,0,0-1,.74,2,2,0,0,1-1.41.79,2,2,0,0,1-1.2-.2,1.24,1.24,0,0,1-.26-2,1.94,1.94,0,0,1,1.13-.51,1.89,1.89,0,0,1,.94.1l-.13.67a2.86,2.86,0,0,0-.77-.06,1.29,1.29,0,0,0-.75.27.55.55,0,0,0-.16.48.52.52,0,0,0,.36.48,1.74,1.74,0,0,0,.75,0,1.65,1.65,0,0,0,1.17-.75,1.77,1.77,0,0,1,1.29-.75Zm-4.65-2.56a8.3,8.3,0,0,0,2.29,0,2.2,2.2,0,0,0,1-.36.52.52,0,0,0,.24-.51.53.53,0,0,0-.41-.39,2.19,2.19,0,0,0-1,0,7.79,7.79,0,0,0-2.16.78l-.14-.78a10.89,10.89,0,0,1,2.12-.68,2.73,2.73,0,0,1,1.51.09,1.17,1.17,0,0,1,.35,2,2.73,2.73,0,0,1-1.39.6,11.11,11.11,0,0,1-2.22.09ZM108.32,38a.64.64,0,0,0,.32.42.76.76,0,0,0,.57,0,1,1,0,0,0,.59-.37.64.64,0,0,0,.06-.52.58.58,0,0,0-.31-.38,1,1,0,0,0-.7,0,.79.79,0,0,0-.48.32A.59.59,0,0,0,108.32,38Zm1.09,1.11a1.34,1.34,0,0,1-1.69-.94,1.25,1.25,0,0,1,.12-1,1.37,1.37,0,0,1,.82-.62,1.57,1.57,0,0,1,1.12,0,1.22,1.22,0,0,1,.66.83,1.06,1.06,0,0,1,0,.69L111,38a.38.38,0,0,0,.29-.24.71.71,0,0,0,0-.46.7.7,0,0,0-.22-.4.5.5,0,0,0-.39,0l-.19-.67a1,1,0,0,1,.88.11,1.52,1.52,0,0,1,.51.82,1.42,1.42,0,0,1,0,1,.94.94,0,0,1-.62.57Zm-.89-3.2a1.33,1.33,0,0,1-1.15,0,1.51,1.51,0,0,1-.63-.83,1.59,1.59,0,0,1,0-.92,1.12,1.12,0,0,1,.82-.73,1.52,1.52,0,0,1,.74,0l-.09.67a1.38,1.38,0,0,0-.55.06.5.5,0,0,0-.33.29.64.64,0,0,0,0,.45.73.73,0,0,0,.32.44.88.88,0,0,0,.64,0L110,34.7a.39.39,0,0,0,.25-.25.72.72,0,0,0,0-.47c-.07-.22-.16-.34-.27-.39a.46.46,0,0,0-.32,0,.68.68,0,0,0-.34.25l-.45-.48a1.16,1.16,0,0,1,.56-.42,1,1,0,0,1,.81.1,1.3,1.3,0,0,1,.59.75,1.38,1.38,0,0,1,0,1,1,1,0,0,1-.59.56Zm-1.2-4.65a.6.6,0,0,0,.38.31,1.21,1.21,0,0,0,1.19-.52.59.59,0,0,0,0-.51.61.61,0,0,0-.38-.31.9.9,0,0,0-.67.08.93.93,0,0,0-.52.46A.61.61,0,0,0,107.33,31.31Zm-2-1.92.21.34a2.49,2.49,0,0,1,1.29-1.38,1.78,1.78,0,0,1,1.18-.17,1.21,1.21,0,0,1,.8.75,1.18,1.18,0,0,1,.07.83,1.21,1.21,0,0,1,.57.58,1.34,1.34,0,0,1,.06,1,1.44,1.44,0,0,1-.83.81,1.47,1.47,0,0,1-1.15.08,1.31,1.31,0,0,1-.79-1.71,1.44,1.44,0,0,1,.82-.82,1.65,1.65,0,0,1,.79-.12,1.23,1.23,0,0,0-.09-.42.6.6,0,0,0-.39-.33,1.14,1.14,0,0,0-.75.14,2.29,2.29,0,0,0-.75.54,2.2,2.2,0,0,0-.45.93,3.83,3.83,0,0,1,.28,1.34,1,1,0,0,1-.43.79l-.39-.86a.32.32,0,0,0,.18-.3,2.2,2.2,0,0,0-.26-.83,5.78,5.78,0,0,0-.53-.95Zm1.8-3.53a1.62,1.62,0,0,0-.69,1.08,2,2,0,0,1-1,1.26,2,2,0,0,1-1.18.27,1.24,1.24,0,0,1-1-1.73,2,2,0,0,1,.85-.9,1.87,1.87,0,0,1,.9-.26l.13.68a2.83,2.83,0,0,0-.74.24,1.29,1.29,0,0,0-.59.54.55.55,0,0,0,0,.5.52.52,0,0,0,.52.31,1.77,1.77,0,0,0,.71-.25,1.66,1.66,0,0,0,.8-1.14,1.76,1.76,0,0,1,.91-1.19Zm-4.12-1a1.38,1.38,0,0,0,.52-.54.42.42,0,0,0,0-.4l-.17-.24.49-.35.13.18a.46.46,0,0,0,.26.21.62.62,0,0,0,.38-.16q.23-.17.38-1l.5.69a1.23,1.23,0,0,1-.46.92,1.05,1.05,0,0,1-.84.2,1.54,1.54,0,0,1-.7,1.12,1.29,1.29,0,0,1-1,.28,1.53,1.53,0,0,1-1.14-1.56,1.33,1.33,0,0,1,.63-.92,2.2,2.2,0,0,1,.76-.35l.14.65a1.59,1.59,0,0,0-.47.26c-.26.19-.4.36-.42.52a.61.61,0,0,0,.14.45.61.61,0,0,0,.46.31A.86.86,0,0,0,103,24.87Zm-.09-5a1.62,1.62,0,0,0-.46,1.19,2,2,0,0,1-.74,1.44,2,2,0,0,1-1.11.49,1.24,1.24,0,0,1-1.31-1.5,2,2,0,0,1,.65-1,1.9,1.9,0,0,1,.84-.43l.26.64a2.87,2.87,0,0,0-.68.38,1.29,1.29,0,0,0-.47.64.56.56,0,0,0,.14.48.52.52,0,0,0,.57.2,1.75,1.75,0,0,0,.64-.38,1.65,1.65,0,0,0,.57-1.27,1.77,1.77,0,0,1,.66-1.34Zm-6.48-.75a8.32,8.32,0,0,0,1.82-1.39,2.2,2.2,0,0,0,.57-.87.52.52,0,0,0-.11-.55.54.54,0,0,0-.56-.08,2.2,2.2,0,0,0-.84.61,7.76,7.76,0,0,0-1.28,1.91l-.57-.54a11,11,0,0,1,1.3-1.81,2.73,2.73,0,0,1,1.27-.82,1.17,1.17,0,0,1,1.44,1.37,2.72,2.72,0,0,1-.76,1.31A11,11,0,0,1,97,19.62Zm-5-5.33.38.22a2.26,2.26,0,0,1,.35-2,1.63,1.63,0,0,1,1-.66,1.2,1.2,0,0,1,1,.24.89.89,0,0,1,.36.78.81.81,0,0,1,.81.14.86.86,0,0,1,.35.76.65.65,0,0,1,.44,0,1.16,1.16,0,0,1,.4.21,1.25,1.25,0,0,1,.49.87,1.59,1.59,0,0,1-.42,1.15,2.43,2.43,0,0,1-1.14.72l-.69-.55A2.17,2.17,0,0,0,96,15a1.16,1.16,0,0,0,.33-.7.56.56,0,0,0-.22-.4c-.23-.2-.49-.1-.79.27l-.43.55-.51-.4.43-.55q.43-.54.11-.79t-.75.29l-.43.55-.51-.4.43-.55q.43-.55.09-.82a.55.55,0,0,0-.43-.09,1.07,1.07,0,0,0-.61.47,2,2,0,0,0-.1,2A6.78,6.78,0,0,1,94,15.88a1,1,0,0,1,0,1.05l-.67-.53a.62.62,0,0,0-.19-.64,5.85,5.85,0,0,0-.73-.66A5.23,5.23,0,0,0,91,14.25Zm-.69-1.19a1.73,1.73,0,0,1-.91.89,1.33,1.33,0,0,1-1-.17,1.45,1.45,0,0,1-.67-.76,1.2,1.2,0,0,1,.15-1,2.13,2.13,0,0,1,.49-.54l.47.54a1.35,1.35,0,0,0-.42.47.5.5,0,0,0,0,.43.7.7,0,0,0,.33.36.66.66,0,0,0,.51.12q.19-.06.52-.64L91,10.58c.06-.11,0-.21-.12-.29s-.26-.09-.31,0l-.46.81-.55-.31.46-.81c0-.09,0-.16,0-.2l-.27-.16a1.12,1.12,0,0,1-.41-.45l.5-.39a.81.81,0,0,0,.23.32l.25.14c.15.07.22.26.23.55a.74.74,0,0,1,.73,0,.92.92,0,0,1,.41.5.7.7,0,0,1,0,.62Zm-3.81-1.82a1.38,1.38,0,0,0,.22-.71.42.42,0,0,0-.22-.34l-.27-.14L86.92,9l.19.1a.46.46,0,0,0,.32.07q.12,0,.26-.32a1.82,1.82,0,0,0-.13-1.11l.76.39a1.22,1.22,0,0,1,0,1,1,1,0,0,1-.66.56,1.55,1.55,0,0,1-.11,1.31,1.29,1.29,0,0,1-.8.72,1.41,1.41,0,0,1-1-.14,1.39,1.39,0,0,1-.69-.73,1.32,1.32,0,0,1,.14-1.11,2.17,2.17,0,0,1,.52-.66l.42.51a1.59,1.59,0,0,0-.3.44.87.87,0,0,0-.14.66.77.77,0,0,0,.88.4A.85.85,0,0,0,86.91,10.76ZM83,10.4a8.29,8.29,0,0,0,1.17-2,2.2,2.2,0,0,0,.2-1,.51.51,0,0,0-.31-.47.53.53,0,0,0-.55.14A2.2,2.2,0,0,0,83,8a7.82,7.82,0,0,0-.47,2.25l-.73-.29a11,11,0,0,1,.53-2.16,2.73,2.73,0,0,1,.87-1.24,1.17,1.17,0,0,1,1.85.73,2.72,2.72,0,0,1-.21,1.5,11.16,11.16,0,0,1-1.09,1.94ZM79.22,6.91q.15-.5-.24-.61-.64-.19-.88.64a2.39,2.39,0,0,0,.38,1.94l-.95-.27a2.88,2.88,0,0,1-.11-1.85,2.8,2.8,0,0,1,.47-.94,2.12,2.12,0,0,1,.78-.61,3,3,0,0,1,2.14-.08l-.17.59q-1.47-.32-1.89,0h.45a.87.87,0,0,1,.54.57,1,1,0,0,1,.87-.16,1.28,1.28,0,0,1,.81.62,1.51,1.51,0,0,1,0,1.18,2.84,2.84,0,0,1-1.07,1.49l-.91-.26a2.42,2.42,0,0,0,1.31-1.43,1,1,0,0,0,0-.69.59.59,0,0,0-.38-.33c-.27-.08-.46,0-.55.38L79.6,8,79,7.86Zm-2.6.1A1.33,1.33,0,0,1,76,8a1.52,1.52,0,0,1-1,.15,1.58,1.58,0,0,1-.82-.43,1.12,1.12,0,0,1-.24-1.07A1.51,1.51,0,0,1,74.28,6l.55.4a1.4,1.4,0,0,0-.21.51.49.49,0,0,0,.1.43.64.64,0,0,0,.4.22.73.73,0,0,0,.54-.07.88.88,0,0,0,.27-.59l.32-1.8a.39.39,0,0,0-.1-.34.73.73,0,0,0-.43-.2.59.59,0,0,0-.47.05.46.46,0,0,0-.16.28.67.67,0,0,0,.05.41l-.64.17a1.15,1.15,0,0,1-.1-.69.94.94,0,0,1,.47-.66,1.29,1.29,0,0,1,.94-.16,1.39,1.39,0,0,1,.91.48,1,1,0,0,1,.21.79Zm-4.75.06a.64.64,0,0,0,.5-.16.75.75,0,0,0,.22-.53.94.94,0,0,0-.14-.68A.64.64,0,0,0,72,5.48a.58.58,0,0,0-.46.16,1,1,0,0,0-.23.67.78.78,0,0,0,.13.56A.59.59,0,0,0,71.87,7.08Zm1.42-.64a1.34,1.34,0,0,1-1.46,1.25,1.25,1.25,0,0,1-.92-.47,1.36,1.36,0,0,1-.3-1,1.57,1.57,0,0,1,.43-1,1.23,1.23,0,0,1,1-.33,1.05,1.05,0,0,1,.64.28l0-.6a.38.38,0,0,0-.12-.35.92.92,0,0,0-.89-.09.51.51,0,0,0-.16.36l-.69-.05a.94.94,0,0,1,.41-.79,1.52,1.52,0,0,1,.95-.19,1.41,1.41,0,0,1,.89.37.93.93,0,0,1,.32.78ZM68.84,3.23a1.62,1.62,0,0,0,.57,1.15A2,2,0,0,1,70,5.89,2,2,0,0,1,69.59,7a1.24,1.24,0,0,1-2,0,2,2,0,0,1-.33-1.19,1.88,1.88,0,0,1,.25-.91l.65.23a2.94,2.94,0,0,0-.17.76,1.3,1.3,0,0,0,.15.78.56.56,0,0,0,.45.23.52.52,0,0,0,.53-.28,1.75,1.75,0,0,0,.15-.73,1.65,1.65,0,0,0-.56-1.27,1.76,1.76,0,0,1-.55-1.39Zm-4.41.91a1.47,1.47,0,0,0,.27,1,1.46,1.46,0,0,1,.27,1,1.37,1.37,0,0,1-.4,1,1.34,1.34,0,0,1-2.3-1V3.21H63V6a1,1,0,0,0,.19.62.53.53,0,0,0,.45.21.62.62,0,0,0,.47-.19.85.85,0,0,0,.19-.59A1.2,1.2,0,0,0,64,5.26a1.77,1.77,0,0,1-.27-1.13ZM60.6,7.43A8.25,8.25,0,0,0,61,5.17a2.2,2.2,0,0,0-.19-1,.51.51,0,0,0-.46-.33.53.53,0,0,0-.46.33,2.18,2.18,0,0,0-.19,1,7.76,7.76,0,0,0,.39,2.26h-.79A11,11,0,0,1,59,5.23a2.74,2.74,0,0,1,.35-1.47,1.17,1.17,0,0,1,2,0,2.72,2.72,0,0,1,.35,1.47,11.18,11.18,0,0,1-.3,2.21Z"/><path class="cls-15" d="M109.61,92.42v-.65h3.86v.65Zm.79.88a4.1,4.1,0,0,0-.25.6,1.75,1.75,0,0,0-.09.5,1,1,0,0,0,.12.58.46.46,0,0,0,.39.21.39.39,0,0,0,.32-.11h0a1.21,1.21,0,0,0,.2-.52l.07-.3a1.7,1.7,0,0,1,.43-.85,1,1,0,0,1,.77-.28,1,1,0,0,1,.87.4,1.8,1.8,0,0,1,.26,1.13,2.85,2.85,0,0,1-.08.58,4.59,4.59,0,0,1-.21.66l-.7,0a2.64,2.64,0,0,0,.43-1.24,1.06,1.06,0,0,0-.13-.61.49.49,0,0,0-.42-.22.53.53,0,0,0-.21,0,.48.48,0,0,0-.17.1.78.78,0,0,0-.13.2,1.69,1.69,0,0,0-.1.31l-.07.3a1.69,1.69,0,0,1-.39.84.94.94,0,0,1-.73.25,1,1,0,0,1-.82-.4,1.53,1.53,0,0,1-.27-1,3.63,3.63,0,0,1,.24-1.16Zm-1,3.74.05-.65,3.85.29,0,.65ZM109,99.77l.08-.65,3.27.41.23-1.79.57.07-.31,2.44Zm-.28,1.34.12-.64,3.8.69-.12.64Zm-.77,3.34.31-1.32a2,2,0,0,1,.19-.51,1.12,1.12,0,0,1,.28-.35.83.83,0,0,1,.36-.17,1,1,0,0,1,.43,0,1.08,1.08,0,0,1,.47.22.63.63,0,0,1,.21.4.94.94,0,0,1,.46-.35,1.09,1.09,0,0,1,.61,0,1,1,0,0,1,.72.54,1.58,1.58,0,0,1,.05,1l-.32,1.37Zm.7-.51.94.22.15-.65a.84.84,0,0,0,0-.51.42.42,0,0,0-.32-.24q-.47-.11-.62.53Zm1.49.35,1.18.27.17-.71a.83.83,0,0,0,0-.57.57.57,0,0,0-.41-.28.55.55,0,0,0-.48.07.84.84,0,0,0-.27.5Zm-3.29,3.36,1.05-3.12.54.18-.42,1.25,3.12,1.05-.21.62-3.12-1.06-.42,1.25ZM105,112l.33-.73,3.25-.2-2.62-1.19.26-.58,3.52,1.6-.33.72-3.25.2,2.62,1.19-.26.58Zm-.61,1,.33-.56L108,114.4l-.33.56Zm-2.81,4.51.39-.61,1.77,0-.35-.81-.35-.81.39-.61,1,2.26,1.53,1-.35.55-1.53-1Zm-2.28,2.82.54-.69,2.44.77-.67-1.09-.66-1.09.54-.69,3,2.38-.39.5-2.3-1.8.62,1,.61,1-.37.48-2.25-.71,2.3,1.8-.39.5Zm-2.07,2.14,1.72-1.81.41.39-1.28,1.34.69.66L100,121.8l.41.39-1.22,1.28.87.83,1.31-1.37.41.39L100,125.16ZM94.45,125l.84-.72a3.29,3.29,0,0,1,.8-.53,2,2,0,0,1,.74-.19,1.58,1.58,0,0,1,.69.2,2.43,2.43,0,0,1,.66.56,2.52,2.52,0,0,1,.46.74,1.47,1.47,0,0,1,.09.72,2.41,2.41,0,0,1-.93,1.42l-.84.72Zm.86,0,1.79,2.07.4-.35a1.49,1.49,0,0,0,.6-.95,1.78,1.78,0,0,0-1.36-1.58,1.49,1.49,0,0,0-1,.45Zm-2.81,1.56.53-.42,3.56,2.11-.54.42-.86-.53-1.23,1,.08.24.08.24.08.25.08.23-.54.43Zm.75.41.13.4.13.38.12.39.13.41.91-.72ZM92,128.22a2.32,2.32,0,0,0-.75,0,1.46,1.46,0,0,0-.59.21,1.15,1.15,0,0,0-.58.81,1.61,1.61,0,0,0,.32,1.07,2.17,2.17,0,0,0,.4.48,1.21,1.21,0,0,0,.44.25,1,1,0,0,0,.48,0,1.36,1.36,0,0,0,.5-.21,1.81,1.81,0,0,0,.72-1.14l.4.62a2.17,2.17,0,0,1-.84,1,1.8,1.8,0,0,1-1.45.3,2.37,2.37,0,0,1-1.58-2.46h0a1.79,1.79,0,0,1,.87-1.21,2.18,2.18,0,0,1,1.27-.36Zm-5,1.77.6-.31,3.07,2.77-.61.31-.74-.69-1.4.71,0,.25,0,.25,0,.26,0,.24-.62.31Zm.66.55.05.42,0,.4,0,.41,0,.43,1-.53Zm-6.38,2,.75-.29,2.47,2.12-1.06-2.68.59-.23L85.38,135l-.74.29-2.48-2.12,1.06,2.68-.59.23Zm-2.17.64.65-.18,2.47,3.31-.66.19-.59-.82L79.4,136c0,.08,0,.16,0,.25s0,.17,0,.26l0,.26v.25l-.66.19Zm.54.67,0,.42,0,.4,0,.41c0,.14,0,.28,0,.43l1.11-.32Zm-1.8.77a2.29,2.29,0,0,0-.69-.28,1.47,1.47,0,0,0-.63,0,1.15,1.15,0,0,0-.82.57,1.6,1.6,0,0,0-.07,1.12,2.18,2.18,0,0,0,.22.58,1.22,1.22,0,0,0,.33.38,1,1,0,0,0,.44.18,1.38,1.38,0,0,0,.54,0,1.82,1.82,0,0,0,1.07-.83l.17.72a2.18,2.18,0,0,1-1.14.67,1.8,1.8,0,0,1-1.47-.21,2.37,2.37,0,0,1-.66-2.85h0a1.78,1.78,0,0,1,1.22-.84,2.18,2.18,0,0,1,1.31.09Zm-4.28-.26.65-.08.48,3.83-.65.08Zm-2.76.85.09,1.17.55,0a.71.71,0,0,0,.48-.19.66.66,0,0,0-.07-.87.73.73,0,0,0-.5-.11Zm1.93.44a1.11,1.11,0,0,1-.09.57.87.87,0,0,1-.37.38,1.12,1.12,0,0,1,.28.24,3,3,0,0,1,.28.39l.16.26.17.28.17.28.15.26-.7.05-.57-1a1.22,1.22,0,0,0-.37-.44.72.72,0,0,0-.44-.08l-.47,0,.12,1.57-.65,0L70,134.64l1.21-.09a1.52,1.52,0,0,1,1,.21A1.07,1.07,0,0,1,72.66,135.59Zm-5.78-.86,2.5-.06v.57l-1.85,0,0,1,1.77,0v.57l-1.77,0,0,1.2,1.89,0v.57l-2.54.06Zm-4.47,0h.88l.9,2.39.45-1.2.45-1.19H66v3.86h-.64v-2.92l-.41,1.11-.41,1.1h-.61L63,135.65v2.92h-.64Zm-2.65,0h.67l1.47,3.86h-.68l-.34-1H59.31l-.08.23-.09.24-.09.24-.08.23h-.69Zm.33.79-.14.39-.14.38-.14.38-.15.4h1.16Zm-4.58-.79h.65v3.86h-.65Zm-2.93,0h.65V138H55v.57H52.57Zm-1.58,0h.65v3.86H51Zm-2.62,3.85L47,134.66l.69,0,1,3,.61-1.48.6-1.48.68,0L49,138.58Zm-4.66-4.15.65.05L44.25,136l1.67.13L46,134.6l.65,0-.3,3.85-.65,0,.13-1.76-1.67-.13-.14,1.76-.65,0Zm-.73.7a4.44,4.44,0,0,0-.55-.34,1.79,1.79,0,0,0-.48-.17,1,1,0,0,0-.59,0,.46.46,0,0,0-.27.36.39.39,0,0,0,.06.33h0a1.21,1.21,0,0,0,.49.28l.29.12a1.71,1.71,0,0,1,.77.56,1,1,0,0,1,.16.8,1,1,0,0,1-.53.79,1.8,1.8,0,0,1-1.16.09,2.91,2.91,0,0,1-.57-.17,4.49,4.49,0,0,1-.62-.31l.13-.68a2.63,2.63,0,0,0,1.16.62,1.07,1.07,0,0,0,.63,0,.5.5,0,0,0,.29-.39.53.53,0,0,0,0-.21.48.48,0,0,0-.08-.18.77.77,0,0,0-.18-.16,1.66,1.66,0,0,0-.29-.15l-.29-.11a1.68,1.68,0,0,1-.77-.52,1,1,0,0,1-.14-.76,1,1,0,0,1,.52-.75,1.53,1.53,0,0,1,1-.12,3.64,3.64,0,0,1,1.11.42Zm-3.55-1.52.63.15-.88,3.76-.63-.15Zm-3.62-1,.77.22.68,3.18.79-2.77.61.17-1.05,3.72-.77-.22-.68-3.18-.79,2.77-.61-.17Zm-2.11-.81.63.25-.05,4.13-.64-.25,0-1-1.46-.58-.16.19-.17.19-.17.19-.16.19-.64-.25Zm0,.85-.28.31-.27.3-.27.3-.29.32,1.08.43ZM29.52,130l3,1.36-.24.52-1.2-.54-1.36,3-.6-.27,1.36-3-1.2-.55Zm-.46.63a4.27,4.27,0,0,0-.4-.51,1.79,1.79,0,0,0-.39-.32,1,1,0,0,0-.57-.17.46.46,0,0,0-.37.24.4.4,0,0,0-.05.33h0a1.2,1.2,0,0,0,.36.43l.23.21a1.7,1.7,0,0,1,.54.79,1,1,0,0,1-.13.81,1,1,0,0,1-.77.57,1.8,1.8,0,0,1-1.12-.31,2.87,2.87,0,0,1-.47-.35,4.5,4.5,0,0,1-.48-.5l.35-.6a2.64,2.64,0,0,0,.88,1,1.07,1.07,0,0,0,.6.18.5.5,0,0,0,.4-.27.54.54,0,0,0,.07-.2.47.47,0,0,0,0-.19.75.75,0,0,0-.12-.21,1.66,1.66,0,0,0-.22-.23l-.23-.21a1.67,1.67,0,0,1-.55-.75.94.94,0,0,1,.13-.76,1,1,0,0,1,.74-.53,1.53,1.53,0,0,1,1,.25,3.63,3.63,0,0,1,.9.77Zm-3.75-3.22.57.36-.84,4-.58-.37.23-1-1.32-.84-.2.15-.2.16-.21.16-.19.15-.58-.37Zm-.14.84-.34.25-.32.24-.33.24-.34.26,1,.62Zm-3.57-3.68.87.69a3.28,3.28,0,0,1,.67.69,1.94,1.94,0,0,1,.32.69,1.56,1.56,0,0,1-.07.72,2.42,2.42,0,0,1-.42.76,2.51,2.51,0,0,1-.64.6,1.46,1.46,0,0,1-.69.23,2.4,2.4,0,0,1-1.57-.64l-.87-.69Zm.17.84-1.69,2.15.42.33a1.49,1.49,0,0,0,1,.41,1.79,1.79,0,0,0,1.29-1.64,1.49,1.49,0,0,0-.64-.92Zm-2-2.62.47.45-2.27,2.38,1.31,1.25-.39.41-1.78-1.7ZM18,121l.46.49-1.79,3.73-.47-.5.46-.9-1.08-1.14-.23.1-.24.1-.24.1-.22.1-.48-.5Zm-.34.78-.39.17-.37.16-.37.16-.4.17.8.84Zm-2.51-4.23,1.9,2.41-.38.3-3.61,0,1.44,1.82-.45.35-2-2.5.38-.3,3.61,0-1.37-1.74Zm-2.71-4.1.39.61-.7,1.63.88,0,.88,0,.39.6-2.46-.05-1.53,1-.36-.55,1.53-1ZM8,113.24l2.77-3.07.31.61-2.15,2.36,1.59-.18,1.58-.18.31.61-4.11.45Zm2.43-3.91.27.59L7.2,111.51l-.27-.59Zm-1.37-3.46.24.61-2.17.85a1.31,1.31,0,0,0-.68.48,1,1,0,0,0,.47,1.2,1.32,1.32,0,0,0,.83-.11L9.93,108l.24.61-2.23.88a1.59,1.59,0,0,1-1.21.07,1.49,1.49,0,0,1-.77-.9,1.49,1.49,0,0,1,0-1.18,1.6,1.6,0,0,1,.93-.77Zm-2.54-.47-.22-.79.54-.15.4,1.41-1.64.47a2.44,2.44,0,0,1-.52-.57,2.62,2.62,0,0,1-.32-.71,1.88,1.88,0,0,1,.12-1.51,2,2,0,0,1,1.28-.89,2,2,0,0,1,1.55.09,1.87,1.87,0,0,1,.9,1.22,2.65,2.65,0,0,1,.1.72,2.55,2.55,0,0,1-.1.7l-.71.2a2,2,0,0,0,.18-1.43,1.23,1.23,0,0,0-.61-.83,1.58,1.58,0,0,0-1.13,0,1.57,1.57,0,0,0-.95.61,1.23,1.23,0,0,0-.08,1,2.15,2.15,0,0,0,.16.41,1.38,1.38,0,0,0,.21.3Zm.81-7.46.31,2.48-.57.07-.23-1.83-.94.12.22,1.76-.57.07-.22-1.76L4.16,99l.24,1.88-.57.07-.32-2.52ZM7,94.16l.05.65-1.52.12.13,1.67,1.52-.12,0,.65-3.85.29,0-.65,1.76-.13L5,95l-1.76.14,0-.65Zm0-3.47V94H6.45V92.67H3.16V92H6.45V90.69Z"/><polygon class="cls-14" points="111.48 81.83 112.07 83.29 113.64 83.08 112.67 84.33 113.64 85.58 112.07 85.36 111.48 86.83 110.88 85.36 109.31 85.58 110.29 84.33 109.31 83.08 110.88 83.29 111.48 81.83"/><path class="cls-16" d="M90.13,34.4a1.6,1.6,0,0,1-.4-1.13,1.26,1.26,0,0,1,.47-1,1.1,1.1,0,0,1,.72-.28,1.76,1.76,0,0,1,.7.16l0,.33a2.22,2.22,0,0,0-.86.5,2.69,2.69,0,0,0-.54.59.51.51,0,0,0,0,.66.6.6,0,0,0,.65.22,2.47,2.47,0,0,0,.92-.52l1.6-1.29q.44-.36.46-.62a.67.67,0,0,0-.16-.48.86.86,0,0,0-.52-.33.65.65,0,0,0-.55.16c-.05,0-.06.12,0,.24a.24.24,0,0,1-.08.29.25.25,0,0,1-.22.07.42.42,0,0,1-.22-.16.53.53,0,0,1-.16-.43.57.57,0,0,1,.2-.31,1,1,0,0,1,.86-.23,1.57,1.57,0,0,1,.86.6,1.86,1.86,0,0,1,.44,1,1,1,0,0,1-.41.9l-1.52,1.23a1.6,1.6,0,0,1-1.21.4,1.58,1.58,0,0,1-1.07-.63m-2.48-2.85a3.42,3.42,0,0,0,2.16-1.24A7.5,7.5,0,0,0,91,28.88a.53.53,0,0,0-.18-.62.65.65,0,0,0-.44-.19,1.46,1.46,0,0,0-.51.05l.05-.3a1.21,1.21,0,0,1,.6,0,1.16,1.16,0,0,1,.44.28,1.59,1.59,0,0,1,.55,1.13q0,.6-1.07,1.7A2.67,2.67,0,0,1,88,31.9Zm1.79-4.65a.54.54,0,0,0-.61-.18A7.41,7.41,0,0,0,87.42,28a7.47,7.47,0,0,0-1.23,1.44.54.54,0,0,0,.18.62.58.58,0,0,0,.63.18A6.51,6.51,0,0,0,88.44,29a6.5,6.5,0,0,0,1.22-1.46A.59.59,0,0,0,89.44,26.9Zm.14-.14a1.47,1.47,0,0,1,.52,1.15,3.12,3.12,0,0,1-1,1.66,3.09,3.09,0,0,1-1.65,1.11,1.52,1.52,0,0,1-1.15-.5A1.54,1.54,0,0,1,85.7,29a3.12,3.12,0,0,1,1.07-1.68,3.07,3.07,0,0,1,1.64-1.08A1.51,1.51,0,0,1,89.58,26.76Zm-6.41,1.12a1.61,1.61,0,0,1-.73-.95,1.27,1.27,0,0,1,.14-1.06,1.11,1.11,0,0,1,.6-.49,1.78,1.78,0,0,1,.71-.07l.12.31a2.22,2.22,0,0,0-.66.75,2.66,2.66,0,0,0-.33.73.51.51,0,0,0,.24.62.6.6,0,0,0,.68,0,2.46,2.46,0,0,0,.71-.79l1.11-1.73a1,1,0,0,0,.24-.73.67.67,0,0,0-.31-.41.86.86,0,0,0-.59-.15.65.65,0,0,0-.47.32c0,.06,0,.13.06.23a.24.24,0,0,1,0,.3.26.26,0,0,1-.19.13.42.42,0,0,1-.26-.08.54.54,0,0,1-.29-.36.58.58,0,0,1,.09-.36,1,1,0,0,1,.75-.49,1.57,1.57,0,0,1,1,.3,1.86,1.86,0,0,1,.74.83,1,1,0,0,1-.1,1l-1.05,1.65a1.6,1.6,0,0,1-1,.77A1.58,1.58,0,0,1,83.17,27.88ZM83,23.11a.69.69,0,0,1-.46.31,1.75,1.75,0,0,1-.78,0,1.82,1.82,0,0,1,.54.78,1.66,1.66,0,0,1-.27,1.2,1.41,1.41,0,0,1-.86.71A1.58,1.58,0,0,1,79.88,26a1.71,1.71,0,0,1-.86-.89,1.22,1.22,0,0,1,0-1.06,1.43,1.43,0,0,1,.64-.72,1.53,1.53,0,0,1,.6-.13h0l.2.33a3,3,0,0,0-.63.94,2.33,2.33,0,0,0-.24.76.56.56,0,0,0,.34.61.55.55,0,0,0,.66-.06,2.43,2.43,0,0,0,.55-.73,4.33,4.33,0,0,0,.46-1.11.42.42,0,0,0-.26-.46.58.58,0,0,0-.32,0c-.07,0-.1-.08-.08-.2s.1-.14.24-.08a.59.59,0,0,0,.58,0,1,1,0,0,0,.36-.39,2.79,2.79,0,0,0,.16-.39c.06-.17,0-.27,0-.3a.17.17,0,0,0-.22.06c-.07.08-.17.09-.31,0s-.13-.18,0-.36.24-.12.51,0a1.49,1.49,0,0,1,.7.65A.72.72,0,0,1,83,23.11Zm-4.77-3.17a1.54,1.54,0,0,1,.92.93,3.05,3.05,0,0,1-.34,2,3.65,3.65,0,0,1-1.67,1.81l-.43-.18a6.92,6.92,0,0,0,1.25-2,6.44,6.44,0,0,0,.61-1.86.58.58,0,0,0-.42-.52.52.52,0,0,0-.63.08,8.28,8.28,0,0,0-.87,1.75,11.88,11.88,0,0,0-.57,1.56c.08,0,.16,0,.24.09a.31.31,0,0,1,0,.34.38.38,0,0,1-.2.2.38.38,0,0,1-.3,0,.53.53,0,0,1-.28-.28,1.65,1.65,0,0,1-.11-.54,3.32,3.32,0,0,1,.06-.78,4.46,4.46,0,0,1,.28-.93,3.24,3.24,0,0,1,1.14-1.65A1.44,1.44,0,0,1,78.19,19.94Zm-3.78-.37q.31.12.28.29c0,.13-.14.18-.31.14a.22.22,0,0,0-.27.13c0,.09.11.3.42.63A1.19,1.19,0,0,1,74.73,22a1.71,1.71,0,0,1-.68,1,1.47,1.47,0,0,1-1.31.08,1.56,1.56,0,0,1-1-.79,1.87,1.87,0,0,1,0-1.35l.82-2.58q.05-.16-.17-.35a.61.61,0,0,1,.28,0,1.74,1.74,0,0,1,.51.27c.16.12.2.31.11.58l-.74,2.32a2.89,2.89,0,0,0-.2,1.19.61.61,0,0,0,.45.51.51.51,0,0,0,.64-.2,4.27,4.27,0,0,0,.41-1,1.7,1.7,0,0,0,0-1.24,1.11,1.11,0,0,1-.16-.7.37.37,0,0,1,.3-.29A.93.93,0,0,1,74.41,19.57ZM69,20.31a1.85,1.85,0,0,1-.66,1.22,1.57,1.57,0,0,1-1.27.28A1.56,1.56,0,0,1,65.72,20a1.37,1.37,0,0,1,.87-1.14l.31.27a3,3,0,0,0-.26.92,3.3,3.3,0,0,0,0,1.1.53.53,0,0,0,.45.49.58.58,0,0,0,.66-.3,3.75,3.75,0,0,0,.34-1.18,1.81,1.81,0,0,0-.44-1.69,1.33,1.33,0,0,1-.54-1.09c0-.23.19-.32.47-.27s.37.18.28.4q-.38.59.46,1.18A1.54,1.54,0,0,1,69,20.31Zm-5.24-3.55a.53.53,0,0,0-.59.28,3.36,3.36,0,0,0-.24,1.06,4.72,4.72,0,0,0,0,1.37.63.63,0,0,0,1.11.12,4.77,4.77,0,0,0,.27-1.35,3.37,3.37,0,0,0,0-1.08A.53.53,0,0,0,63.72,16.76Zm0-.2a1.43,1.43,0,0,1,1.12.64,1.72,1.72,0,0,1,.3,1.13,2.14,2.14,0,0,1-.56,1.35,1.44,1.44,0,0,1-1.23.38,1.43,1.43,0,0,1-1.13-.63A2.2,2.2,0,0,1,62,18a1.72,1.72,0,0,1,.53-1A1.42,1.42,0,0,1,63.74,16.56ZM62.52,17a1,1,0,0,0-.67-.41.49.49,0,0,0-.56.29,3.4,3.4,0,0,0-.21,1,3,3,0,0,0,.14,1.35,1.59,1.59,0,0,0,.76.89c.27.14.61.29,1,.46s.61.33.6.49-.17.28-.47.25a.45.45,0,0,1-.45-.34q0-.28-.36-.47a2.23,2.23,0,0,0-.74-.24.36.36,0,0,0-.44.27.33.33,0,0,1-.39.27c-.22,0-.32-.16-.31-.32a.4.4,0,0,1,.21-.33,2,2,0,0,1,.72-.13,2.76,2.76,0,0,1-1.06-1.15,2.73,2.73,0,0,1-.13-1.25,1.44,1.44,0,0,1,.46-.92,1.54,1.54,0,0,1,1.27-.3,1.25,1.25,0,0,1,.78.44ZM57.36,19.3a1.85,1.85,0,0,1-.42,1.32,1.57,1.57,0,0,1-1.19.52,1.56,1.56,0,0,1-1.63-1.54,1.37,1.37,0,0,1,.63-1.29l.36.21a3,3,0,0,0-.08,1,3.3,3.3,0,0,0,.18,1.08.54.54,0,0,0,.53.4.58.58,0,0,0,.59-.42,3.81,3.81,0,0,0,.11-1.22,1.81,1.81,0,0,0-.76-1.57q-.72-.48-.74-1t.41-.36c.28,0,.4.1.35.34q-.26.65.68,1.07A1.54,1.54,0,0,1,57.36,19.3ZM51.6,18.2a.55.55,0,0,0-.54.37,3.24,3.24,0,0,0,0,1.14A4.13,4.13,0,0,0,51.3,21a.55.55,0,0,0,.6.26.56.56,0,0,0,.54-.37,4,4,0,0,0,0-1.33,3.14,3.14,0,0,0-.25-1.11A.56.56,0,0,0,51.6,18.2Zm0-.18a1.51,1.51,0,0,1,1.25.37,1.69,1.69,0,0,1,.53,1.09,2,2,0,0,1-.29,1.38,1.52,1.52,0,0,1-1.15.6,1.5,1.5,0,0,1-1.26-.36,2,2,0,0,1-.54-1.3,1.7,1.7,0,0,1,.31-1.18A1.5,1.5,0,0,1,51.58,18Zm0,0,0-.25c0-.19-.17-.28-.52-.29s-.54-.15-.57-.43.12-.32.42-.35.35,0,.37.14a.23.23,0,0,1,0,.2.16.16,0,0,0,0,.16.4.4,0,0,0,.33.14.29.29,0,0,1,.3.26,1.33,1.33,0,0,1,0,.4Zm-3.45,4a1.59,1.59,0,0,1-1.18-.2,1.27,1.27,0,0,1-.61-.87,1.1,1.1,0,0,1,.11-.77,1.78,1.78,0,0,1,.48-.53l.3.14a2.23,2.23,0,0,0,0,1,2.71,2.71,0,0,0,.26.76.51.51,0,0,0,.6.29.6.6,0,0,0,.51-.46,2.47,2.47,0,0,0,0-1.06l-.36-2a1,1,0,0,0-.32-.7.68.68,0,0,0-.5-.09.86.86,0,0,0-.54.29.65.65,0,0,0-.13.56c0,.07.08.11.2.13a.24.24,0,0,1,.22.21.26.26,0,0,1-.05.23.43.43,0,0,1-.25.12.54.54,0,0,1-.46-.07.58.58,0,0,1-.18-.33,1,1,0,0,1,.22-.87,1.57,1.57,0,0,1,.94-.46,1.85,1.85,0,0,1,1.11.11,1,1,0,0,1,.59.79l.34,1.92a1.6,1.6,0,0,1-.23,1.25A1.58,1.58,0,0,1,48.08,22.08Zm-6.31-3.32a.8.8,0,0,1,.7,0,.82.82,0,0,1,.58-.45,1.41,1.41,0,0,1,1.12.05,1.65,1.65,0,0,1,.75,1,2.16,2.16,0,0,1-.33,1.86l-.56.18a2.82,2.82,0,0,0,0-1.76,4.28,4.28,0,0,0-.45-1.08.41.41,0,0,0-.49-.1.39.39,0,0,0-.27.25,1.3,1.3,0,0,0,.09.66,1.71,1.71,0,0,0,.25.56.61.61,0,0,1,.16.23.32.32,0,0,1-.22.44.31.31,0,0,1-.44-.22.51.51,0,0,1,0-.25,2,2,0,0,0-.15-.61,1.62,1.62,0,0,0-.28-.59.39.39,0,0,0-.41,0,.44.44,0,0,0-.32.27,1.27,1.27,0,0,0,.09.66,1.66,1.66,0,0,0,.25.56.57.57,0,0,1,.16.23.32.32,0,0,1-.22.44.32.32,0,0,1-.44-.22.49.49,0,0,1,0-.25,1.94,1.94,0,0,0-.14-.61,1.58,1.58,0,0,0-.29-.59.38.38,0,0,0-.4,0,.37.37,0,0,0-.27.38,3.4,3.4,0,0,0,.21,1A3.28,3.28,0,0,0,41,21.85a1.93,1.93,0,0,0,1.45.52h1.18c.45,0,.7.08.75.23s0,.33-.33.42-.53.07-.61-.11-.22-.26-.48-.27a2.22,2.22,0,0,0-.72.09.34.34,0,0,0-.27.42.31.31,0,0,1-.23.4c-.21,0-.34,0-.4-.17a.39.39,0,0,1,.06-.38,2,2,0,0,1,.58-.41A3,3,0,0,1,40.24,22a2.4,2.4,0,0,1-.69-1,1.47,1.47,0,0,1,0-1.14,1.34,1.34,0,0,1,.83-.65.85.85,0,0,1,.75,0A.94.94,0,0,1,41.76,18.76ZM38.56,25a3.42,3.42,0,0,0-.5-2.43,7.37,7.37,0,0,0-1-1.6.53.53,0,0,0-.65,0,.65.65,0,0,0-.32.36,1.46,1.46,0,0,0-.11.5l-.27-.14a1.21,1.21,0,0,1,.2-.56,1.15,1.15,0,0,1,.4-.34,1.59,1.59,0,0,1,1.25-.17q.57.18,1.28,1.55A2.68,2.68,0,0,1,39,24.8Zm-3.86-3.15a.55.55,0,0,0-.36.52,7.44,7.44,0,0,0,.76,1.74,7.46,7.46,0,0,0,1,1.62.54.54,0,0,0,.64,0,.58.58,0,0,0,.37-.55,6.51,6.51,0,0,0-.74-1.74,6.43,6.43,0,0,0-1-1.61A.59.59,0,0,0,34.69,21.88Zm-.09-.17a1.48,1.48,0,0,1,1.26-.13,3.13,3.13,0,0,1,1.25,1.51A3.09,3.09,0,0,1,37.65,25a1.51,1.51,0,0,1-.83.94,1.54,1.54,0,0,1-1.27.16q-.57-.21-1.26-1.54a3.07,3.07,0,0,1-.52-1.9A1.51,1.51,0,0,1,34.6,21.7ZM33.9,25.5a1.85,1.85,0,0,1,.32,1.35,1.58,1.58,0,0,1-.75,1.06,1.56,1.56,0,0,1-2.19-.49A1.37,1.37,0,0,1,31.15,26h.41a3,3,0,0,0,.42.86,3.31,3.31,0,0,0,.71.84.54.54,0,0,0,.66.07.58.58,0,0,0,.29-.66,3.73,3.73,0,0,0-.53-1.1,1.8,1.8,0,0,0-1.45-1,1.33,1.33,0,0,1-1.13-.45q-.19-.29.17-.52c.23-.15.39-.11.47.11q.11.69,1.13.57A1.54,1.54,0,0,1,33.9,25.5ZM30.31,30a.53.53,0,0,0,.24-.59,4.45,4.45,0,0,0-.73-1.11,3.55,3.55,0,0,0-.79-.8.52.52,0,0,0-.64.09,1.5,1.5,0,0,0-.41.77l.87,1.08a2.92,2.92,0,0,0,.72.7A.63.63,0,0,0,30.31,30ZM26.9,28.4a1.1,1.1,0,0,1-.3-.87,1.37,1.37,0,0,1,.56-.79,1.24,1.24,0,0,1,.44-.23,1.12,1.12,0,0,0,.41-.2.54.54,0,0,0,.14-.5l.47-.15a.83.83,0,0,1,0,.54,1.13,1.13,0,0,1-.37.48.58.58,0,0,1-.41.07.76.76,0,0,0-.54.16.38.38,0,0,0-.12.26.59.59,0,0,0,.16.39l.47.59a1.86,1.86,0,0,1,.49-.67,1.44,1.44,0,0,1,1.23-.35,1.72,1.72,0,0,1,1,.63,2.06,2.06,0,0,1,.52,1.3,1.46,1.46,0,0,1-.63,1.12,1.68,1.68,0,0,1-1.22.44,1.51,1.51,0,0,1-1-.63Zm.42,2.16a1.85,1.85,0,0,1,.73,1.18A1.58,1.58,0,0,1,27.67,33a1.56,1.56,0,0,1-2.23.23,1.37,1.37,0,0,1-.56-1.32l.39-.14a3,3,0,0,0,.67.68,3.34,3.34,0,0,0,.94.57.54.54,0,0,0,.65-.14.58.58,0,0,0,.06-.72,3.76,3.76,0,0,0-.85-.88,1.81,1.81,0,0,0-1.68-.45,1.33,1.33,0,0,1-1.21-.07q-.27-.22,0-.54c.18-.22.34-.23.48,0q.33.62,1.25.18A1.54,1.54,0,0,1,27.32,30.56ZM25.25,36a.58.58,0,0,0-.06-.78,4.15,4.15,0,0,0-.83-.67,2,2,0,0,0-.95-.37.68.68,0,0,0-.72.26.64.64,0,0,0,.06.78,2.07,2.07,0,0,0,.7.62,3.6,3.6,0,0,0,1,.47A.64.64,0,0,0,25.25,36Zm-2.72-1.63a1.75,1.75,0,0,1,1-.77,1.57,1.57,0,0,1,1.29.17,1.58,1.58,0,0,1,.55,2.32,1.79,1.79,0,0,1-1.05.82A1.72,1.72,0,0,1,23,36.65a1.46,1.46,0,0,1-.66-1A1.66,1.66,0,0,1,22.53,34.39Zm0,0a.47.47,0,0,1-.19-.33.79.79,0,0,0-.42-.46.31.31,0,0,0-.25,0,.55.55,0,0,0-.31.27,1.38,1.38,0,0,0-.19.42.24.24,0,0,0,.09.28s.12,0,.2-.13a.21.21,0,0,1,.3-.07.3.3,0,0,1,.16.19.4.4,0,0,1-.09.29.5.5,0,0,1-.22.21c-.11.06-.26,0-.44-.07A.54.54,0,0,1,21,34.5a1.8,1.8,0,0,1,.31-.8,1.33,1.33,0,0,1,.56-.52.53.53,0,0,1,.51,0,.55.55,0,0,1,.29.62c-.06.26,0,.42,0,.47Z"/></g></g></svg>