<svg xmlns="http://www.w3.org/2000/svg" viewBox="0 0 46.21 57.63"><defs><style>.cls-1{fill:#666;}</style></defs><title>mark</title><g id="Layer_2" data-name="Layer 2"><g id="Layer_1-2" data-name="Layer 1"><path class="cls-1" d="M23.1,57.63l-.72-.69C21.47,56.08,0,35.59,0,23.1a23.1,23.1,0,0,1,46.21,0c0,12.49-21.47,33-22.38,33.84Zm0-55.53a21,21,0,0,0-21,21c0,10.37,17.22,27.89,21,31.61,3.78-3.72,21-21.24,21-31.61A21,21,0,0,0,23.1,2.1Z"/><path class="cls-1" d="M23.1,34.08a11,11,0,1,1,11-11A11,11,0,0,1,23.1,34.08Zm0-19.84A8.87,8.87,0,1,0,32,23.1,8.88,8.88,0,0,0,23.1,14.24Z"/></g></g></svg>