<svg xmlns="http://www.w3.org/2000/svg" viewBox="0 0 50.27 55.49"><defs><style>.cls-1{fill:#666;}</style></defs><title>phone</title><g id="Layer_2" data-name="Layer 2"><g id="Layer_1-2" data-name="Layer 1"><path class="cls-1" d="M37,55.49h-.28A40.36,40.36,0,0,1,.17,11.61v-.09C1,7,6.5,3.07,10.95.6a4.8,4.8,0,0,1,6.72,2.23l3.75,8.38a5.63,5.63,0,0,1-2.28,7.15l-4.68,2.77A26.28,26.28,0,0,0,20,32.27a26.72,26.72,0,0,0,9.81,7.38l2.74-3.76a5.63,5.63,0,0,1,7.33-1.59l8,4.53a4.79,4.79,0,0,1,1.61,6.86C46.38,50.18,41.75,55.49,37,55.49Zm-.12-2.11c4.11.11,8.57-5.51,10.87-8.88a2.64,2.64,0,0,0,.39-2.11,2.68,2.68,0,0,0-1.3-1.74l-8-4.53a3.53,3.53,0,0,0-4.59,1l-3.71,5.1-.76-.3a28.81,28.81,0,0,1-11.4-8.3,28.36,28.36,0,0,1-6.11-12.8l-.14-.73,6-3.53a3.53,3.53,0,0,0,1.43-4.48L15.74,3.7A2.69,2.69,0,0,0,12,2.45C8.66,4.28,3,7.93,2.26,11.85A38.26,38.26,0,0,0,36.84,53.38Z"/></g></g></svg>