<svg xmlns="http://www.w3.org/2000/svg" viewBox="0 0 35.33 33.9"><defs><style>.cls-1{fill:none;stroke:#5a5a5a;stroke-linecap:round;stroke-linejoin:round;stroke-width:1.5px;}</style></defs><title>social</title><g id="Layer_2" data-name="Layer 2"><g id="Layer_1-2" data-name="Layer 1"><path class="cls-1" d="M30.48,28.31A2.23,2.23,0,0,0,32,27.67l.14-.17A2.33,2.33,0,0,0,32.73,26,2.19,2.19,0,0,0,32,24.48,1.93,1.93,0,0,0,31.3,24l.33,0a2.16,2.16,0,0,0,1.6-.66l0,0a2.33,2.33,0,0,0,.63-1.57A2.28,2.28,0,0,0,32,19.5v-.11l.38,0a2.07,2.07,0,0,0,1.51-.6,2.34,2.34,0,0,0,.63-1.54c0-.11,0-.63,0-1.57a2.13,2.13,0,0,0-.61-1.18,2.61,2.61,0,0,0-1.9-.58H21a4.9,4.9,0,0,0,1.43-2.95c0-.27.06-1.51.06-3.69L21.78,2.4a2.07,2.07,0,0,0-.58-1.07A1.83,1.83,0,0,0,19.74.75a1.8,1.8,0,0,0-1.46.58,1.84,1.84,0,0,0-.58,1.46v0l-.94,5.09c-1.57,4.73-4,7.87-7.18,9.39"/><line class="cls-1" x1="9.59" y1="17.29" x2="9.59" y2="31.47"/><path class="cls-1" d="M9.59,17.29c0-.83-.41-1.24-1.21-1.21H2A1.06,1.06,0,0,0,.75,17.29V31.94A1.09,1.09,0,0,0,2,33.15H8.37a1.08,1.08,0,0,0,1.21-1.21v-.47"/><path class="cls-1" d="M9.59,31.47A8.54,8.54,0,0,0,14,33H29.38A2.19,2.19,0,0,0,31,32.35l.17-.17a2.48,2.48,0,0,0,.52-1.46A2.19,2.19,0,0,0,31,29.1a5,5,0,0,0-.91-.8"/></g></g></svg>